<svg width="1920" height="539" viewBox="0 0 1920 539" fill="none" xmlns="http://www.w3.org/2000/svg">
<path d="M185.902 301.043L183.305 301.453L189.672 319.93L190.316 322.176H190.434L191.078 319.93L197.426 301.434L194.867 301.043V298.562H203.832V301.043L201.547 301.355L192.016 327H188.715L179.184 301.355L176.918 301.043V298.562H185.902V301.043ZM215.238 327.41C212.296 327.41 209.952 326.434 208.207 324.48C206.475 322.514 205.609 319.969 205.609 316.844V315.984C205.609 312.977 206.501 310.477 208.285 308.484C210.082 306.479 212.204 305.477 214.652 305.477C217.491 305.477 219.639 306.336 221.098 308.055C222.569 309.773 223.305 312.065 223.305 314.93V317.332H209.594L209.535 317.43C209.574 319.461 210.089 321.134 211.078 322.449C212.068 323.751 213.454 324.402 215.238 324.402C216.54 324.402 217.68 324.22 218.656 323.855C219.646 323.478 220.499 322.964 221.215 322.312L222.719 324.812C221.964 325.542 220.961 326.16 219.711 326.668C218.474 327.163 216.983 327.41 215.238 327.41ZM214.652 308.504C213.363 308.504 212.263 309.051 211.352 310.145C210.44 311.225 209.88 312.586 209.672 314.227L209.711 314.324H219.457V313.816C219.457 312.306 219.053 311.043 218.246 310.027C217.439 309.012 216.241 308.504 214.652 308.504ZM227.113 308.348V305.867H233.734L234.105 308.934C234.704 307.853 235.44 307.007 236.312 306.395C237.198 305.783 238.207 305.477 239.34 305.477C239.639 305.477 239.945 305.503 240.258 305.555C240.583 305.594 240.831 305.639 241 305.691L240.492 309.266L238.305 309.148C237.289 309.148 236.436 309.389 235.746 309.871C235.056 310.34 234.522 311.004 234.145 311.863V323.992L237.328 324.539V327H227.113V324.539L230.297 323.992V308.895L227.113 308.348ZM259.848 312.508H256.957L256.332 309.969C255.863 309.526 255.271 309.174 254.555 308.914C253.852 308.641 253.051 308.504 252.152 308.504C250.785 308.504 249.77 308.803 249.105 309.402C248.441 310.001 248.109 310.724 248.109 311.57C248.109 312.404 248.402 313.061 248.988 313.543C249.574 314.025 250.766 314.454 252.562 314.832C255.232 315.405 257.217 316.186 258.52 317.176C259.822 318.152 260.473 319.467 260.473 321.121C260.473 322.996 259.711 324.513 258.188 325.672C256.677 326.831 254.698 327.41 252.25 327.41C250.648 327.41 249.21 327.228 247.934 326.863C246.658 326.486 245.518 325.945 244.516 325.242L244.496 320.418H247.387L248.109 323.25C248.552 323.654 249.151 323.947 249.906 324.129C250.674 324.311 251.456 324.402 252.25 324.402C253.617 324.402 254.685 324.129 255.453 323.582C256.234 323.022 256.625 322.293 256.625 321.395C256.625 320.548 256.299 319.852 255.648 319.305C255.01 318.758 253.793 318.283 251.996 317.879C249.431 317.319 247.497 316.557 246.195 315.594C244.893 314.63 244.242 313.328 244.242 311.688C244.242 309.969 244.971 308.504 246.43 307.293C247.901 306.082 249.809 305.477 252.152 305.477C253.754 305.477 255.193 305.685 256.469 306.102C257.745 306.518 258.806 307.098 259.652 307.84L259.848 312.508ZM270.785 300.77V305.867H274.789V308.719H270.785V321.551C270.785 322.54 270.987 323.237 271.391 323.641C271.807 324.044 272.354 324.246 273.031 324.246C273.37 324.246 273.747 324.22 274.164 324.168C274.594 324.103 274.952 324.038 275.238 323.973L275.766 326.609C275.401 326.844 274.867 327.033 274.164 327.176C273.461 327.332 272.758 327.41 272.055 327.41C270.492 327.41 269.249 326.941 268.324 326.004C267.4 325.053 266.938 323.569 266.938 321.551V308.719H263.598V305.867H266.938V300.77H270.785ZM288.363 327.41C285.421 327.41 283.077 326.434 281.332 324.48C279.6 322.514 278.734 319.969 278.734 316.844V315.984C278.734 312.977 279.626 310.477 281.41 308.484C283.207 306.479 285.329 305.477 287.777 305.477C290.616 305.477 292.764 306.336 294.223 308.055C295.694 309.773 296.43 312.065 296.43 314.93V317.332H282.719L282.66 317.43C282.699 319.461 283.214 321.134 284.203 322.449C285.193 323.751 286.579 324.402 288.363 324.402C289.665 324.402 290.805 324.22 291.781 323.855C292.771 323.478 293.624 322.964 294.34 322.312L295.844 324.812C295.089 325.542 294.086 326.16 292.836 326.668C291.599 327.163 290.108 327.41 288.363 327.41ZM287.777 308.504C286.488 308.504 285.388 309.051 284.477 310.145C283.565 311.225 283.005 312.586 282.797 314.227L282.836 314.324H292.582V313.816C292.582 312.306 292.178 311.043 291.371 310.027C290.564 309.012 289.366 308.504 287.777 308.504ZM299.711 324.539L302.895 323.992V299.559L299.711 299.012V296.531H306.742V308.68C307.471 307.664 308.363 306.876 309.418 306.316C310.473 305.757 311.645 305.477 312.934 305.477C315.199 305.477 316.957 306.154 318.207 307.508C319.457 308.862 320.082 310.945 320.082 313.758V323.992L323.266 324.539V327H313.051V324.539L316.234 323.992V313.719C316.234 311.974 315.857 310.685 315.102 309.852C314.359 309.018 313.246 308.602 311.762 308.602C310.707 308.602 309.743 308.855 308.871 309.363C308.012 309.858 307.302 310.535 306.742 311.395V323.992L309.926 324.539V327H299.711V324.539ZM335.512 327.41C332.569 327.41 330.225 326.434 328.48 324.48C326.749 322.514 325.883 319.969 325.883 316.844V315.984C325.883 312.977 326.775 310.477 328.559 308.484C330.355 306.479 332.478 305.477 334.926 305.477C337.764 305.477 339.913 306.336 341.371 308.055C342.842 309.773 343.578 312.065 343.578 314.93V317.332H329.867L329.809 317.43C329.848 319.461 330.362 321.134 331.352 322.449C332.341 323.751 333.728 324.402 335.512 324.402C336.814 324.402 337.953 324.22 338.93 323.855C339.919 323.478 340.772 322.964 341.488 322.312L342.992 324.812C342.237 325.542 341.234 326.16 339.984 326.668C338.747 327.163 337.257 327.41 335.512 327.41ZM334.926 308.504C333.637 308.504 332.536 309.051 331.625 310.145C330.714 311.225 330.154 312.586 329.945 314.227L329.984 314.324H339.73V313.816C339.73 312.306 339.327 311.043 338.52 310.027C337.712 309.012 336.514 308.504 334.926 308.504ZM346.82 324.539L350.004 323.992V308.895L346.82 308.348V305.867H353.441L353.715 309.012C354.418 307.892 355.297 307.026 356.352 306.414C357.419 305.789 358.63 305.477 359.984 305.477C362.263 305.477 364.027 306.147 365.277 307.488C366.527 308.816 367.152 310.874 367.152 313.66V323.992L370.336 324.539V327H360.121V324.539L363.305 323.992V313.738C363.305 311.876 362.934 310.555 362.191 309.773C361.462 308.992 360.342 308.602 358.832 308.602C357.725 308.602 356.742 308.868 355.883 309.402C355.036 309.936 354.359 310.665 353.852 311.59V323.992L357.035 324.539V327H346.82V324.539Z" fill="#FFFFF9"/>
<path d="M476.848 298.562C479.816 298.562 482.134 299.207 483.801 300.496C485.48 301.772 486.32 303.693 486.32 306.258C486.32 307.521 485.917 308.654 485.109 309.656C484.315 310.646 483.26 311.382 481.945 311.863C483.651 312.228 484.999 313.068 485.988 314.383C486.978 315.698 487.473 317.228 487.473 318.973C487.473 321.577 486.626 323.569 484.934 324.949C483.241 326.316 480.949 327 478.059 327H464.387V324.539L467.57 323.992V301.59L464.387 301.043V298.562H467.57H476.848ZM471.418 313.66V323.992H478.059C479.816 323.992 481.177 323.562 482.141 322.703C483.117 321.831 483.605 320.6 483.605 319.012C483.605 317.345 483.195 316.036 482.375 315.086C481.568 314.135 480.324 313.66 478.645 313.66H471.418ZM471.418 310.652H477.844C479.224 310.613 480.337 310.203 481.184 309.422C482.043 308.641 482.473 307.56 482.473 306.18C482.473 304.643 481.991 303.497 481.027 302.742C480.064 301.974 478.671 301.59 476.848 301.59H471.418V310.652ZM500.676 327.41C497.733 327.41 495.389 326.434 493.645 324.48C491.913 322.514 491.047 319.969 491.047 316.844V315.984C491.047 312.977 491.939 310.477 493.723 308.484C495.52 306.479 497.642 305.477 500.09 305.477C502.928 305.477 505.077 306.336 506.535 308.055C508.007 309.773 508.742 312.065 508.742 314.93V317.332H495.031L494.973 317.43C495.012 319.461 495.526 321.134 496.516 322.449C497.505 323.751 498.892 324.402 500.676 324.402C501.978 324.402 503.117 324.22 504.094 323.855C505.083 323.478 505.936 322.964 506.652 322.312L508.156 324.812C507.401 325.542 506.398 326.16 505.148 326.668C503.911 327.163 502.421 327.41 500.676 327.41ZM500.09 308.504C498.801 308.504 497.701 309.051 496.789 310.145C495.878 311.225 495.318 312.586 495.109 314.227L495.148 314.324H504.895V313.816C504.895 312.306 504.491 311.043 503.684 310.027C502.876 309.012 501.678 308.504 500.09 308.504ZM512.57 316.238C512.57 313.113 513.417 310.542 515.109 308.523C516.802 306.492 519.1 305.477 522.004 305.477C524.921 305.477 527.225 306.486 528.918 308.504C530.624 310.522 531.477 313.1 531.477 316.238V316.668C531.477 319.819 530.63 322.397 528.938 324.402C527.245 326.408 524.947 327.41 522.043 327.41C519.113 327.41 516.802 326.408 515.109 324.402C513.417 322.384 512.57 319.806 512.57 316.668V316.238ZM516.418 316.668C516.418 318.908 516.887 320.757 517.824 322.215C518.775 323.673 520.181 324.402 522.043 324.402C523.866 324.402 525.253 323.673 526.203 322.215C527.154 320.757 527.629 318.908 527.629 316.668V316.238C527.629 314.025 527.154 312.182 526.203 310.711C525.253 309.24 523.853 308.504 522.004 308.504C520.155 308.504 518.762 309.24 517.824 310.711C516.887 312.182 516.418 314.025 516.418 316.238V316.668ZM554.348 317.234C554.348 320.281 553.612 322.742 552.141 324.617C550.682 326.479 548.671 327.41 546.105 327.41C544.725 327.41 543.527 327.15 542.512 326.629C541.496 326.095 540.65 325.314 539.973 324.285L539.621 327H536.301V299.559L533.117 299.012V296.531H540.148V308.367C540.812 307.43 541.633 306.714 542.609 306.219C543.599 305.724 544.751 305.477 546.066 305.477C548.671 305.477 550.702 306.518 552.16 308.602C553.618 310.685 554.348 313.426 554.348 316.824V317.234ZM550.48 316.824C550.48 314.389 550.038 312.41 549.152 310.887C548.267 309.363 546.913 308.602 545.09 308.602C543.905 308.602 542.902 308.888 542.082 309.461C541.275 310.034 540.63 310.802 540.148 311.766V321.102C540.63 322.078 541.281 322.853 542.102 323.426C542.935 323.999 543.944 324.285 545.129 324.285C546.939 324.285 548.28 323.641 549.152 322.352C550.038 321.062 550.48 319.357 550.48 317.234V316.824ZM571.965 327C571.848 326.427 571.757 325.913 571.691 325.457C571.626 325.001 571.581 324.546 571.555 324.09C570.812 325.04 569.882 325.835 568.762 326.473C567.655 327.098 566.47 327.41 565.207 327.41C563.007 327.41 561.333 326.876 560.188 325.809C559.042 324.728 558.469 323.211 558.469 321.258C558.469 319.253 559.276 317.71 560.891 316.629C562.518 315.535 564.745 314.988 567.57 314.988H571.535V312.527C571.535 311.29 571.145 310.314 570.363 309.598C569.582 308.868 568.495 308.504 567.102 308.504C566.138 308.504 565.285 308.628 564.543 308.875C563.814 309.122 563.221 309.461 562.766 309.891L562.355 312.117H559.387V308.016C560.35 307.247 561.516 306.635 562.883 306.18C564.25 305.711 565.734 305.477 567.336 305.477C569.732 305.477 571.672 306.089 573.156 307.312C574.641 308.536 575.383 310.288 575.383 312.566V322.742C575.383 323.016 575.383 323.283 575.383 323.543C575.396 323.803 575.415 324.064 575.441 324.324L577.004 324.539V327H571.965ZM565.773 324.188C567.049 324.188 568.215 323.882 569.27 323.27C570.324 322.658 571.079 321.922 571.535 321.062V317.586H567.434C565.858 317.586 564.608 317.951 563.684 318.68C562.772 319.409 562.316 320.294 562.316 321.336C562.316 322.26 562.603 322.97 563.176 323.465C563.749 323.947 564.615 324.188 565.773 324.188ZM589.699 324.402C590.975 324.402 592.095 324.012 593.059 323.23C594.035 322.436 594.523 321.466 594.523 320.32H597.98L598.02 320.438C598.085 322.26 597.271 323.882 595.578 325.301C593.898 326.707 591.939 327.41 589.699 327.41C586.626 327.41 584.276 326.408 582.648 324.402C581.034 322.397 580.227 319.878 580.227 316.844V316.023C580.227 313.016 581.04 310.509 582.668 308.504C584.296 306.486 586.639 305.477 589.699 305.477C591.392 305.477 592.909 305.757 594.25 306.316C595.604 306.876 596.724 307.645 597.609 308.621L597.785 313.309H594.719L593.879 309.988C593.423 309.546 592.837 309.188 592.121 308.914C591.405 308.641 590.598 308.504 589.699 308.504C587.681 308.504 586.236 309.233 585.363 310.691C584.504 312.137 584.074 313.914 584.074 316.023V316.844C584.074 319.005 584.504 320.809 585.363 322.254C586.223 323.686 587.668 324.402 589.699 324.402ZM601.242 324.539L604.426 323.992V299.559L601.242 299.012V296.531H608.273V308.68C609.003 307.664 609.895 306.876 610.949 306.316C612.004 305.757 613.176 305.477 614.465 305.477C616.73 305.477 618.488 306.154 619.738 307.508C620.988 308.862 621.613 310.945 621.613 313.758V323.992L624.797 324.539V327H614.582V324.539L617.766 323.992V313.719C617.766 311.974 617.388 310.685 616.633 309.852C615.891 309.018 614.777 308.602 613.293 308.602C612.238 308.602 611.275 308.855 610.402 309.363C609.543 309.858 608.833 310.535 608.273 311.395V323.992L611.457 324.539V327H601.242V324.539ZM634.309 300.77V305.867H638.312V308.719H634.309V321.551C634.309 322.54 634.51 323.237 634.914 323.641C635.331 324.044 635.878 324.246 636.555 324.246C636.893 324.246 637.271 324.22 637.688 324.168C638.117 324.103 638.475 324.038 638.762 323.973L639.289 326.609C638.924 326.844 638.391 327.033 637.688 327.176C636.984 327.332 636.281 327.41 635.578 327.41C634.016 327.41 632.772 326.941 631.848 326.004C630.923 325.053 630.461 323.569 630.461 321.551V308.719H627.121V305.867H630.461V300.77H634.309ZM651.887 327.41C648.944 327.41 646.6 326.434 644.855 324.48C643.124 322.514 642.258 319.969 642.258 316.844V315.984C642.258 312.977 643.15 310.477 644.934 308.484C646.73 306.479 648.853 305.477 651.301 305.477C654.139 305.477 656.288 306.336 657.746 308.055C659.217 309.773 659.953 312.065 659.953 314.93V317.332H646.242L646.184 317.43C646.223 319.461 646.737 321.134 647.727 322.449C648.716 323.751 650.103 324.402 651.887 324.402C653.189 324.402 654.328 324.22 655.305 323.855C656.294 323.478 657.147 322.964 657.863 322.312L659.367 324.812C658.612 325.542 657.609 326.16 656.359 326.668C655.122 327.163 653.632 327.41 651.887 327.41ZM651.301 308.504C650.012 308.504 648.911 309.051 648 310.145C647.089 311.225 646.529 312.586 646.32 314.227L646.359 314.324H656.105V313.816C656.105 312.306 655.702 311.043 654.895 310.027C654.087 309.012 652.889 308.504 651.301 308.504ZM663.195 324.539L666.379 323.992V308.895L663.195 308.348V305.867H669.816L670.09 309.012C670.793 307.892 671.672 307.026 672.727 306.414C673.794 305.789 675.005 305.477 676.359 305.477C678.638 305.477 680.402 306.147 681.652 307.488C682.902 308.816 683.527 310.874 683.527 313.66V323.992L686.711 324.539V327H676.496V324.539L679.68 323.992V313.738C679.68 311.876 679.309 310.555 678.566 309.773C677.837 308.992 676.717 308.602 675.207 308.602C674.1 308.602 673.117 308.868 672.258 309.402C671.411 309.936 670.734 310.665 670.227 311.59V323.992L673.41 324.539V327H663.195V324.539Z" fill="#FFFFF9"/>
<path d="M771.973 306.961H769.062L768.34 302.898C767.754 302.404 766.973 301.993 765.996 301.668C765.02 301.342 763.887 301.18 762.598 301.18C760.553 301.18 758.984 301.616 757.891 302.488C756.797 303.348 756.25 304.474 756.25 305.867C756.25 307.104 756.803 308.139 757.91 308.973C759.03 309.793 760.833 310.516 763.32 311.141C766.315 311.883 768.587 312.977 770.137 314.422C771.699 315.867 772.48 317.658 772.48 319.793C772.48 322.085 771.543 323.927 769.668 325.32C767.806 326.714 765.365 327.41 762.344 327.41C760.156 327.41 758.21 327.052 756.504 326.336C754.811 325.62 753.431 324.682 752.363 323.523V318.23H755.254L755.996 322.312C756.738 322.924 757.624 323.426 758.652 323.816C759.681 324.207 760.911 324.402 762.344 324.402C764.284 324.402 765.814 323.992 766.934 323.172C768.066 322.352 768.633 321.238 768.633 319.832C768.633 318.53 768.145 317.443 767.168 316.57C766.191 315.685 764.466 314.943 761.992 314.344C758.984 313.628 756.634 312.573 754.941 311.18C753.249 309.786 752.402 308.035 752.402 305.926C752.402 303.699 753.346 301.85 755.234 300.379C757.122 298.895 759.577 298.152 762.598 298.152C764.59 298.152 766.4 298.497 768.027 299.188C769.668 299.865 770.983 300.691 771.973 301.668V306.961ZM796.191 308.348L794.297 308.641L786.25 330.242C785.716 331.661 784.948 332.898 783.945 333.953C782.943 335.008 781.595 335.535 779.902 335.535C779.603 335.535 779.212 335.496 778.73 335.418C778.249 335.353 777.878 335.288 777.617 335.223L778.008 332.195C777.93 332.182 778.158 332.195 778.691 332.234C779.238 332.273 779.583 332.293 779.727 332.293C780.547 332.293 781.211 331.935 781.719 331.219C782.227 330.516 782.669 329.702 783.047 328.777L783.965 326.59L776.992 308.66L775.059 308.348V305.867H783.594V308.348L781.211 308.738L784.863 319.168L785.566 321.863H785.684L790.078 308.738L787.676 308.348V305.867H796.191V308.348ZM798.242 324.539L801.426 323.992V308.895L798.242 308.348V305.867H804.863L805.137 309.012C805.84 307.892 806.719 307.026 807.773 306.414C808.841 305.789 810.052 305.477 811.406 305.477C813.685 305.477 815.449 306.147 816.699 307.488C817.949 308.816 818.574 310.874 818.574 313.66V323.992L821.758 324.539V327H811.543V324.539L814.727 323.992V313.738C814.727 311.876 814.355 310.555 813.613 309.773C812.884 308.992 811.764 308.602 810.254 308.602C809.147 308.602 808.164 308.868 807.305 309.402C806.458 309.936 805.781 310.665 805.273 311.59V323.992L808.457 324.539V327H798.242V324.539ZM831.27 300.77V305.867H835.273V308.719H831.27V321.551C831.27 322.54 831.471 323.237 831.875 323.641C832.292 324.044 832.839 324.246 833.516 324.246C833.854 324.246 834.232 324.22 834.648 324.168C835.078 324.103 835.436 324.038 835.723 323.973L836.25 326.609C835.885 326.844 835.352 327.033 834.648 327.176C833.945 327.332 833.242 327.41 832.539 327.41C830.977 327.41 829.733 326.941 828.809 326.004C827.884 325.053 827.422 323.569 827.422 321.551V308.719H824.082V305.867H827.422V300.77H831.27ZM838.672 324.539L841.855 323.992V299.559L838.672 299.012V296.531H845.703V308.68C846.432 307.664 847.324 306.876 848.379 306.316C849.434 305.757 850.605 305.477 851.895 305.477C854.16 305.477 855.918 306.154 857.168 307.508C858.418 308.862 859.043 310.945 859.043 313.758V323.992L862.227 324.539V327H852.012V324.539L855.195 323.992V313.719C855.195 311.974 854.818 310.685 854.062 309.852C853.32 309.018 852.207 308.602 850.723 308.602C849.668 308.602 848.704 308.855 847.832 309.363C846.973 309.858 846.263 310.535 845.703 311.395V323.992L848.887 324.539V327H838.672V324.539ZM874.473 327.41C871.53 327.41 869.186 326.434 867.441 324.48C865.71 322.514 864.844 319.969 864.844 316.844V315.984C864.844 312.977 865.736 310.477 867.52 308.484C869.316 306.479 871.439 305.477 873.887 305.477C876.725 305.477 878.874 306.336 880.332 308.055C881.803 309.773 882.539 312.065 882.539 314.93V317.332H868.828L868.77 317.43C868.809 319.461 869.323 321.134 870.312 322.449C871.302 323.751 872.689 324.402 874.473 324.402C875.775 324.402 876.914 324.22 877.891 323.855C878.88 323.478 879.733 322.964 880.449 322.312L881.953 324.812C881.198 325.542 880.195 326.16 878.945 326.668C877.708 327.163 876.217 327.41 874.473 327.41ZM873.887 308.504C872.598 308.504 871.497 309.051 870.586 310.145C869.674 311.225 869.115 312.586 868.906 314.227L868.945 314.324H878.691V313.816C878.691 312.306 878.288 311.043 877.48 310.027C876.673 309.012 875.475 308.504 873.887 308.504ZM902.52 312.508H899.629L899.004 309.969C898.535 309.526 897.943 309.174 897.227 308.914C896.523 308.641 895.723 308.504 894.824 308.504C893.457 308.504 892.441 308.803 891.777 309.402C891.113 310.001 890.781 310.724 890.781 311.57C890.781 312.404 891.074 313.061 891.66 313.543C892.246 314.025 893.438 314.454 895.234 314.832C897.904 315.405 899.889 316.186 901.191 317.176C902.493 318.152 903.145 319.467 903.145 321.121C903.145 322.996 902.383 324.513 900.859 325.672C899.349 326.831 897.37 327.41 894.922 327.41C893.32 327.41 891.882 327.228 890.605 326.863C889.329 326.486 888.19 325.945 887.188 325.242L887.168 320.418H890.059L890.781 323.25C891.224 323.654 891.823 323.947 892.578 324.129C893.346 324.311 894.128 324.402 894.922 324.402C896.289 324.402 897.357 324.129 898.125 323.582C898.906 323.022 899.297 322.293 899.297 321.395C899.297 320.548 898.971 319.852 898.32 319.305C897.682 318.758 896.465 318.283 894.668 317.879C892.103 317.319 890.169 316.557 888.867 315.594C887.565 314.63 886.914 313.328 886.914 311.688C886.914 309.969 887.643 308.504 889.102 307.293C890.573 306.082 892.48 305.477 894.824 305.477C896.426 305.477 897.865 305.685 899.141 306.102C900.417 306.518 901.478 307.098 902.324 307.84L902.52 312.508ZM916.387 327.41C913.444 327.41 911.1 326.434 909.355 324.48C907.624 322.514 906.758 319.969 906.758 316.844V315.984C906.758 312.977 907.65 310.477 909.434 308.484C911.23 306.479 913.353 305.477 915.801 305.477C918.639 305.477 920.788 306.336 922.246 308.055C923.717 309.773 924.453 312.065 924.453 314.93V317.332H910.742L910.684 317.43C910.723 319.461 911.237 321.134 912.227 322.449C913.216 323.751 914.603 324.402 916.387 324.402C917.689 324.402 918.828 324.22 919.805 323.855C920.794 323.478 921.647 322.964 922.363 322.312L923.867 324.812C923.112 325.542 922.109 326.16 920.859 326.668C919.622 327.163 918.132 327.41 916.387 327.41ZM915.801 308.504C914.512 308.504 913.411 309.051 912.5 310.145C911.589 311.225 911.029 312.586 910.82 314.227L910.859 314.324H920.605V313.816C920.605 312.306 920.202 311.043 919.395 310.027C918.587 309.012 917.389 308.504 915.801 308.504Z" fill="#FFFFF9"/>
<path d="M1635.36 298.562V304.852H1632.07L1631.78 301.59H1625.47V323.992L1628.66 324.539V327H1618.44V324.539L1621.62 323.992V301.59H1615.3L1615.02 304.852H1611.72V298.562H1635.36ZM1645.51 327.41C1642.57 327.41 1640.23 326.434 1638.48 324.48C1636.75 322.514 1635.88 319.969 1635.88 316.844V315.984C1635.88 312.977 1636.77 310.477 1638.56 308.484C1640.36 306.479 1642.48 305.477 1644.93 305.477C1647.76 305.477 1649.91 306.336 1651.37 308.055C1652.84 309.773 1653.58 312.065 1653.58 314.93V317.332H1639.87L1639.81 317.43C1639.85 319.461 1640.36 321.134 1641.35 322.449C1642.34 323.751 1643.73 324.402 1645.51 324.402C1646.81 324.402 1647.95 324.22 1648.93 323.855C1649.92 323.478 1650.77 322.964 1651.49 322.312L1652.99 324.812C1652.24 325.542 1651.23 326.16 1649.98 326.668C1648.75 327.163 1647.26 327.41 1645.51 327.41ZM1644.93 308.504C1643.64 308.504 1642.54 309.051 1641.62 310.145C1640.71 311.225 1640.15 312.586 1639.95 314.227L1639.98 314.324H1649.73V313.816C1649.73 312.306 1649.33 311.043 1648.52 310.027C1647.71 309.012 1646.51 308.504 1644.93 308.504ZM1673.56 312.508H1670.67L1670.04 309.969C1669.57 309.526 1668.98 309.174 1668.27 308.914C1667.56 308.641 1666.76 308.504 1665.86 308.504C1664.5 308.504 1663.48 308.803 1662.82 309.402C1662.15 310.001 1661.82 310.724 1661.82 311.57C1661.82 312.404 1662.11 313.061 1662.7 313.543C1663.29 314.025 1664.48 314.454 1666.27 314.832C1668.94 315.405 1670.93 316.186 1672.23 317.176C1673.53 318.152 1674.18 319.467 1674.18 321.121C1674.18 322.996 1673.42 324.513 1671.9 325.672C1670.39 326.831 1668.41 327.41 1665.96 327.41C1664.36 327.41 1662.92 327.228 1661.64 326.863C1660.37 326.486 1659.23 325.945 1658.23 325.242L1658.21 320.418H1661.1L1661.82 323.25C1662.26 323.654 1662.86 323.947 1663.62 324.129C1664.39 324.311 1665.17 324.402 1665.96 324.402C1667.33 324.402 1668.4 324.129 1669.16 323.582C1669.95 323.022 1670.34 322.293 1670.34 321.395C1670.34 320.548 1670.01 319.852 1669.36 319.305C1668.72 318.758 1667.5 318.283 1665.71 317.879C1663.14 317.319 1661.21 316.557 1659.91 315.594C1658.6 314.63 1657.95 313.328 1657.95 311.688C1657.95 309.969 1658.68 308.504 1660.14 307.293C1661.61 306.082 1663.52 305.477 1665.86 305.477C1667.46 305.477 1668.9 305.685 1670.18 306.102C1671.46 306.518 1672.52 307.098 1673.36 307.84L1673.56 312.508ZM1684.5 300.77V305.867H1688.5V308.719H1684.5V321.551C1684.5 322.54 1684.7 323.237 1685.1 323.641C1685.52 324.044 1686.07 324.246 1686.74 324.246C1687.08 324.246 1687.46 324.22 1687.88 324.168C1688.3 324.103 1688.66 324.038 1688.95 323.973L1689.48 326.609C1689.11 326.844 1688.58 327.033 1687.88 327.176C1687.17 327.332 1686.47 327.41 1685.77 327.41C1684.2 327.41 1682.96 326.941 1682.04 326.004C1681.11 325.053 1680.65 323.569 1680.65 321.551V308.719H1677.31V305.867H1680.65V300.77H1684.5ZM1702.07 327.41C1699.13 327.41 1696.79 326.434 1695.04 324.48C1693.31 322.514 1692.45 319.969 1692.45 316.844V315.984C1692.45 312.977 1693.34 310.477 1695.12 308.484C1696.92 306.479 1699.04 305.477 1701.49 305.477C1704.33 305.477 1706.48 306.336 1707.93 308.055C1709.4 309.773 1710.14 312.065 1710.14 314.93V317.332H1696.43L1696.37 317.43C1696.41 319.461 1696.92 321.134 1697.91 322.449C1698.9 323.751 1700.29 324.402 1702.07 324.402C1703.38 324.402 1704.52 324.22 1705.49 323.855C1706.48 323.478 1707.33 322.964 1708.05 322.312L1709.55 324.812C1708.8 325.542 1707.8 326.16 1706.55 326.668C1705.31 327.163 1703.82 327.41 1702.07 327.41ZM1701.49 308.504C1700.2 308.504 1699.1 309.051 1698.19 310.145C1697.28 311.225 1696.72 312.586 1696.51 314.227L1696.55 314.324H1706.29V313.816C1706.29 312.306 1705.89 311.043 1705.08 310.027C1704.27 309.012 1703.08 308.504 1701.49 308.504ZM1713.38 324.539L1716.57 323.992V308.895L1713.38 308.348V305.867H1720L1720.28 309.012C1720.98 307.892 1721.86 307.026 1722.91 306.414C1723.98 305.789 1725.19 305.477 1726.55 305.477C1728.83 305.477 1730.59 306.147 1731.84 307.488C1733.09 308.816 1733.71 310.874 1733.71 313.66V323.992L1736.9 324.539V327H1726.68V324.539L1729.87 323.992V313.738C1729.87 311.876 1729.5 310.555 1728.75 309.773C1728.02 308.992 1726.9 308.602 1725.39 308.602C1724.29 308.602 1723.3 308.868 1722.45 309.402C1721.6 309.936 1720.92 310.665 1720.41 311.59V323.992L1723.6 324.539V327H1713.38V324.539Z" fill="#FFFFF9"/>
<path d="M1038.37 301.043V298.562H1048.58V301.043L1045.4 301.59V323.992L1048.58 324.539V327H1038.37V324.539L1041.55 323.992V301.59L1038.37 301.043ZM1065.91 324.48C1065.22 325.444 1064.37 326.173 1063.37 326.668C1062.38 327.163 1061.23 327.41 1059.91 327.41C1057.33 327.41 1055.31 326.479 1053.86 324.617C1052.41 322.742 1051.69 320.281 1051.69 317.234V316.824C1051.69 313.426 1052.41 310.685 1053.86 308.602C1055.31 306.518 1057.35 305.477 1059.95 305.477C1061.2 305.477 1062.3 305.711 1063.25 306.18C1064.21 306.635 1065.03 307.299 1065.71 308.172V299.559L1062.53 299.012V296.531H1065.71H1069.56V323.992L1072.74 324.539V327H1066.22L1065.91 324.48ZM1055.54 317.234C1055.54 319.357 1055.97 321.062 1056.84 322.352C1057.72 323.641 1059.06 324.285 1060.89 324.285C1062.03 324.285 1063 324.025 1063.78 323.504C1064.56 322.983 1065.2 322.247 1065.71 321.297V311.492C1065.22 310.607 1064.57 309.904 1063.78 309.383C1062.98 308.862 1062.03 308.602 1060.93 308.602C1059.09 308.602 1057.73 309.363 1056.84 310.887C1055.97 312.41 1055.54 314.389 1055.54 316.824V317.234ZM1085.34 327.41C1082.4 327.41 1080.05 326.434 1078.31 324.48C1076.58 322.514 1075.71 319.969 1075.71 316.844V315.984C1075.71 312.977 1076.6 310.477 1078.39 308.484C1080.18 306.479 1082.31 305.477 1084.75 305.477C1087.59 305.477 1089.74 306.336 1091.2 308.055C1092.67 309.773 1093.41 312.065 1093.41 314.93V317.332H1079.7L1079.64 317.43C1079.68 319.461 1080.19 321.134 1081.18 322.449C1082.17 323.751 1083.56 324.402 1085.34 324.402C1086.64 324.402 1087.78 324.22 1088.76 323.855C1089.75 323.478 1090.6 322.964 1091.32 322.312L1092.82 324.812C1092.07 325.542 1091.06 326.16 1089.81 326.668C1088.58 327.163 1087.08 327.41 1085.34 327.41ZM1084.75 308.504C1083.46 308.504 1082.36 309.051 1081.45 310.145C1080.54 311.225 1079.98 312.586 1079.77 314.227L1079.81 314.324H1089.56V313.816C1089.56 312.306 1089.15 311.043 1088.35 310.027C1087.54 309.012 1086.34 308.504 1084.75 308.504ZM1106.86 327.41C1103.92 327.41 1101.58 326.434 1099.83 324.48C1098.1 322.514 1097.23 319.969 1097.23 316.844V315.984C1097.23 312.977 1098.13 310.477 1099.91 308.484C1101.71 306.479 1103.83 305.477 1106.28 305.477C1109.12 305.477 1111.26 306.336 1112.72 308.055C1114.19 309.773 1114.93 312.065 1114.93 314.93V317.332H1101.22L1101.16 317.43C1101.2 319.461 1101.71 321.134 1102.7 322.449C1103.69 323.751 1105.08 324.402 1106.86 324.402C1108.17 324.402 1109.3 324.22 1110.28 323.855C1111.27 323.478 1112.12 322.964 1112.84 322.312L1114.34 324.812C1113.59 325.542 1112.59 326.16 1111.34 326.668C1110.1 327.163 1108.61 327.41 1106.86 327.41ZM1106.28 308.504C1104.99 308.504 1103.89 309.051 1102.98 310.145C1102.07 311.225 1101.51 312.586 1101.3 314.227L1101.34 314.324H1111.08V313.816C1111.08 312.306 1110.68 311.043 1109.87 310.027C1109.06 309.012 1107.87 308.504 1106.28 308.504ZM1118.17 324.539L1121.36 323.992V308.895L1118.17 308.348V305.867H1124.79L1125.07 309.012C1125.77 307.892 1126.65 307.026 1127.7 306.414C1128.77 305.789 1129.98 305.477 1131.34 305.477C1133.61 305.477 1135.38 306.147 1136.63 307.488C1137.88 308.816 1138.5 310.874 1138.5 313.66V323.992L1141.69 324.539V327H1131.47V324.539L1134.66 323.992V313.738C1134.66 311.876 1134.29 310.555 1133.54 309.773C1132.81 308.992 1131.69 308.602 1130.18 308.602C1129.08 308.602 1128.09 308.868 1127.23 309.402C1126.39 309.936 1125.71 310.665 1125.2 311.59V323.992L1128.39 324.539V327H1118.17V324.539ZM1048.39 380.41C1045.44 380.41 1043.1 379.434 1041.36 377.48C1039.62 375.514 1038.76 372.969 1038.76 369.844V368.984C1038.76 365.977 1039.65 363.477 1041.43 361.484C1043.23 359.479 1045.35 358.477 1047.8 358.477C1050.64 358.477 1052.79 359.336 1054.25 361.055C1055.72 362.773 1056.45 365.065 1056.45 367.93V370.332H1042.74L1042.68 370.43C1042.72 372.461 1043.24 374.134 1044.23 375.449C1045.22 376.751 1046.6 377.402 1048.39 377.402C1049.69 377.402 1050.83 377.22 1051.8 376.855C1052.79 376.478 1053.65 375.964 1054.36 375.312L1055.87 377.812C1055.11 378.542 1054.11 379.16 1052.86 379.668C1051.62 380.163 1050.13 380.41 1048.39 380.41ZM1047.8 361.504C1046.51 361.504 1045.41 362.051 1044.5 363.145C1043.59 364.225 1043.03 365.586 1042.82 367.227L1042.86 367.324H1052.61V366.816C1052.61 365.306 1052.2 364.043 1051.39 363.027C1050.59 362.012 1049.39 361.504 1047.8 361.504ZM1059.7 377.539L1062.88 376.992V361.895L1059.7 361.348V358.867H1066.32L1066.59 362.012C1067.29 360.892 1068.17 360.026 1069.23 359.414C1070.29 358.789 1071.51 358.477 1072.86 358.477C1075.14 358.477 1076.9 359.147 1078.15 360.488C1079.4 361.816 1080.03 363.874 1080.03 366.66V376.992L1083.21 377.539V380H1073V377.539L1076.18 376.992V366.738C1076.18 364.876 1075.81 363.555 1075.07 362.773C1074.34 361.992 1073.22 361.602 1071.71 361.602C1070.6 361.602 1069.62 361.868 1068.76 362.402C1067.91 362.936 1067.23 363.665 1066.73 364.59V376.992L1069.91 377.539V380H1059.7V377.539ZM1092.72 353.77V358.867H1096.73V361.719H1092.72V374.551C1092.72 375.54 1092.92 376.237 1093.33 376.641C1093.74 377.044 1094.29 377.246 1094.97 377.246C1095.31 377.246 1095.68 377.22 1096.1 377.168C1096.53 377.103 1096.89 377.038 1097.18 376.973L1097.7 379.609C1097.34 379.844 1096.8 380.033 1096.1 380.176C1095.4 380.332 1094.7 380.41 1093.99 380.41C1092.43 380.41 1091.19 379.941 1090.26 379.004C1089.34 378.053 1088.88 376.569 1088.88 374.551V361.719H1085.54V358.867H1088.88V353.77H1092.72ZM1108.15 361.348L1105.73 361.777L1108.48 372.305L1108.93 374.863H1109.05L1109.6 372.305L1113.82 358.867H1116.9L1121.14 372.305L1121.75 375.156H1121.86L1122.43 372.305L1125.03 361.777L1122.57 361.348V358.867H1130.61V361.348L1128.78 361.621L1123.45 380H1120.34L1116.24 367.129L1115.36 363.574L1115.24 363.594L1114.42 367.129L1110.4 380H1107.29L1101.96 361.621L1100.11 361.348V358.867H1108.15V361.348ZM1133.74 377.539L1136.92 376.992V361.895L1133.74 361.348V358.867H1140.77V376.992L1143.95 377.539V380H1133.74V377.539ZM1140.77 353.457H1136.92V349.531H1140.77V353.457ZM1156.39 377.402C1157.67 377.402 1158.79 377.012 1159.75 376.23C1160.73 375.436 1161.22 374.466 1161.22 373.32H1164.68L1164.71 373.438C1164.78 375.26 1163.97 376.882 1162.27 378.301C1160.59 379.707 1158.63 380.41 1156.39 380.41C1153.32 380.41 1150.97 379.408 1149.34 377.402C1147.73 375.397 1146.92 372.878 1146.92 369.844V369.023C1146.92 366.016 1147.74 363.509 1149.36 361.504C1150.99 359.486 1153.33 358.477 1156.39 358.477C1158.09 358.477 1159.6 358.757 1160.95 359.316C1162.3 359.876 1163.42 360.645 1164.3 361.621L1164.48 366.309H1161.41L1160.57 362.988C1160.12 362.546 1159.53 362.188 1158.82 361.914C1158.1 361.641 1157.29 361.504 1156.39 361.504C1154.38 361.504 1152.93 362.233 1152.06 363.691C1151.2 365.137 1150.77 366.914 1150.77 369.023V369.844C1150.77 372.005 1151.2 373.809 1152.06 375.254C1152.92 376.686 1154.36 377.402 1156.39 377.402ZM1167.94 352.012V349.531H1174.97V367.188H1177.43L1181.94 361.602L1180.01 361.348V358.867H1188.86V361.348L1186.28 361.855L1180.71 368.496L1187.49 377.07L1189.89 377.539V380H1181.12V377.539L1183.09 377.285L1177.49 370.254H1174.97V376.992L1178.15 377.539V380H1167.94V377.539L1171.12 376.992V352.559L1167.94 352.012ZM1202.06 380.41C1199.12 380.41 1196.77 379.434 1195.03 377.48C1193.3 375.514 1192.43 372.969 1192.43 369.844V368.984C1192.43 365.977 1193.32 363.477 1195.11 361.484C1196.9 359.479 1199.02 358.477 1201.47 358.477C1204.31 358.477 1206.46 359.336 1207.92 361.055C1209.39 362.773 1210.12 365.065 1210.12 367.93V370.332H1196.41L1196.36 370.43C1196.39 372.461 1196.91 374.134 1197.9 375.449C1198.89 376.751 1200.27 377.402 1202.06 377.402C1203.36 377.402 1204.5 377.22 1205.48 376.855C1206.47 376.478 1207.32 375.964 1208.04 375.312L1209.54 377.812C1208.78 378.542 1207.78 379.16 1206.53 379.668C1205.29 380.163 1203.8 380.41 1202.06 380.41ZM1201.47 361.504C1200.18 361.504 1199.08 362.051 1198.17 363.145C1197.26 364.225 1196.7 365.586 1196.49 367.227L1196.53 367.324H1206.28V366.816C1206.28 365.306 1205.87 364.043 1205.07 363.027C1204.26 362.012 1203.06 361.504 1201.47 361.504ZM1213.41 352.012V349.531H1220.44V376.992L1223.62 377.539V380H1213.41V377.539L1216.59 376.992V352.559L1213.41 352.012ZM1225.98 377.539L1229.17 376.992V361.895L1225.98 361.348V358.867H1232.61L1232.88 362.012C1233.58 360.892 1234.46 360.026 1235.52 359.414C1236.58 358.789 1237.79 358.477 1239.15 358.477C1241.43 358.477 1243.19 359.147 1244.44 360.488C1245.69 361.816 1246.32 363.874 1246.32 366.66V376.992L1249.5 377.539V380H1239.29V377.539L1242.47 376.992V366.738C1242.47 364.876 1242.1 363.555 1241.36 362.773C1240.63 361.992 1239.51 361.602 1238 361.602C1236.89 361.602 1235.91 361.868 1235.05 362.402C1234.2 362.936 1233.52 363.665 1233.02 364.59V376.992L1236.2 377.539V380H1225.98V377.539Z" fill="#FFFFF9"/>
<path d="M1338.45 298.562C1341.49 298.562 1343.84 299.344 1345.52 300.906C1347.22 302.469 1348.06 304.526 1348.06 307.078C1348.06 309.656 1347.22 311.72 1345.52 313.27C1343.84 314.819 1341.49 315.594 1338.45 315.594H1332.42V323.992L1335.6 324.539V327H1325.39V324.539L1328.57 323.992V301.59L1325.39 301.043V298.562H1328.57H1338.45ZM1332.42 312.586H1338.45C1340.38 312.586 1341.82 312.072 1342.77 311.043C1343.73 310.001 1344.21 308.693 1344.21 307.117C1344.21 305.542 1343.73 304.227 1342.77 303.172C1341.82 302.117 1340.38 301.59 1338.45 301.59H1332.42V312.586ZM1351.17 308.348V305.867H1357.79L1358.16 308.934C1358.76 307.853 1359.49 307.007 1360.37 306.395C1361.25 305.783 1362.26 305.477 1363.39 305.477C1363.69 305.477 1364 305.503 1364.31 305.555C1364.64 305.594 1364.89 305.639 1365.05 305.691L1364.55 309.266L1362.36 309.148C1361.34 309.148 1360.49 309.389 1359.8 309.871C1359.11 310.34 1358.58 311.004 1358.2 311.863V323.992L1361.38 324.539V327H1351.17V324.539L1354.35 323.992V308.895L1351.17 308.348ZM1367.36 316.238C1367.36 313.113 1368.21 310.542 1369.9 308.523C1371.59 306.492 1373.89 305.477 1376.79 305.477C1379.71 305.477 1382.01 306.486 1383.71 308.504C1385.41 310.522 1386.27 313.1 1386.27 316.238V316.668C1386.27 319.819 1385.42 322.397 1383.73 324.402C1382.03 326.408 1379.74 327.41 1376.83 327.41C1373.9 327.41 1371.59 326.408 1369.9 324.402C1368.21 322.384 1367.36 319.806 1367.36 316.668V316.238ZM1371.21 316.668C1371.21 318.908 1371.68 320.757 1372.61 322.215C1373.56 323.673 1374.97 324.402 1376.83 324.402C1378.65 324.402 1380.04 323.673 1380.99 322.215C1381.94 320.757 1382.42 318.908 1382.42 316.668V316.238C1382.42 314.025 1381.94 312.182 1380.99 310.711C1380.04 309.24 1378.64 308.504 1376.79 308.504C1374.94 308.504 1373.55 309.24 1372.61 310.711C1371.68 312.182 1371.21 314.025 1371.21 316.238V316.668ZM1396.52 300.77V305.867H1400.52V308.719H1396.52V321.551C1396.52 322.54 1396.72 323.237 1397.12 323.641C1397.54 324.044 1398.09 324.246 1398.77 324.246C1399.1 324.246 1399.48 324.22 1399.9 324.168C1400.33 324.103 1400.69 324.038 1400.97 323.973L1401.5 326.609C1401.14 326.844 1400.6 327.033 1399.9 327.176C1399.2 327.332 1398.49 327.41 1397.79 327.41C1396.23 327.41 1394.98 326.941 1394.06 326.004C1393.13 325.053 1392.67 323.569 1392.67 321.551V308.719H1389.33V305.867H1392.67V300.77H1396.52ZM1404.08 316.238C1404.08 313.113 1404.92 310.542 1406.62 308.523C1408.31 306.492 1410.61 305.477 1413.51 305.477C1416.43 305.477 1418.73 306.486 1420.43 308.504C1422.13 310.522 1422.98 313.1 1422.98 316.238V316.668C1422.98 319.819 1422.14 322.397 1420.45 324.402C1418.75 326.408 1416.45 327.41 1413.55 327.41C1410.62 327.41 1408.31 326.408 1406.62 324.402C1404.92 322.384 1404.08 319.806 1404.08 316.668V316.238ZM1407.93 316.668C1407.93 318.908 1408.39 320.757 1409.33 322.215C1410.28 323.673 1411.69 324.402 1413.55 324.402C1415.37 324.402 1416.76 323.673 1417.71 322.215C1418.66 320.757 1419.14 318.908 1419.14 316.668V316.238C1419.14 314.025 1418.66 312.182 1417.71 310.711C1416.76 309.24 1415.36 308.504 1413.51 308.504C1411.66 308.504 1410.27 309.24 1409.33 310.711C1408.39 312.182 1407.93 314.025 1407.93 316.238V316.668ZM1433.24 300.77V305.867H1437.24V308.719H1433.24V321.551C1433.24 322.54 1433.44 323.237 1433.84 323.641C1434.26 324.044 1434.81 324.246 1435.48 324.246C1435.82 324.246 1436.2 324.22 1436.62 324.168C1437.05 324.103 1437.4 324.038 1437.69 323.973L1438.22 326.609C1437.85 326.844 1437.32 327.033 1436.62 327.176C1435.91 327.332 1435.21 327.41 1434.51 327.41C1432.95 327.41 1431.7 326.941 1430.78 326.004C1429.85 325.053 1429.39 323.569 1429.39 321.551V308.719H1426.05V305.867H1429.39V300.77H1433.24ZM1461.25 308.348L1459.35 308.641L1451.3 330.242C1450.77 331.661 1450 332.898 1449 333.953C1448 335.008 1446.65 335.535 1444.96 335.535C1444.66 335.535 1444.27 335.496 1443.79 335.418C1443.3 335.353 1442.93 335.288 1442.67 335.223L1443.06 332.195C1442.98 332.182 1443.21 332.195 1443.75 332.234C1444.29 332.273 1444.64 332.293 1444.78 332.293C1445.6 332.293 1446.27 331.935 1446.77 331.219C1447.28 330.516 1447.72 329.702 1448.1 328.777L1449.02 326.59L1442.05 308.66L1440.11 308.348V305.867H1448.65V308.348L1446.27 308.738L1449.92 319.168L1450.62 321.863H1450.74L1455.13 308.738L1452.73 308.348V305.867H1461.25V308.348ZM1463.39 332.645L1466.58 332.098V308.895L1463.39 308.348V305.867H1469.88L1470.23 308.445C1470.93 307.482 1471.79 306.746 1472.79 306.238C1473.8 305.73 1474.98 305.477 1476.3 305.477C1478.92 305.477 1480.95 306.518 1482.4 308.602C1483.86 310.672 1484.59 313.413 1484.59 316.824V317.234C1484.59 320.281 1483.86 322.742 1482.4 324.617C1480.94 326.479 1478.93 327.41 1476.36 327.41C1475.06 327.41 1473.92 327.195 1472.93 326.766C1471.95 326.323 1471.12 325.672 1470.43 324.812V332.098L1473.61 332.645V335.125H1463.39V332.645ZM1480.72 316.824C1480.72 314.415 1480.25 312.443 1479.31 310.906C1478.38 309.37 1476.98 308.602 1475.13 308.602C1474.04 308.602 1473.1 308.849 1472.32 309.344C1471.54 309.839 1470.91 310.516 1470.43 311.375V321.668C1470.91 322.54 1471.53 323.217 1472.3 323.699C1473.08 324.168 1474.04 324.402 1475.17 324.402C1476.99 324.402 1478.38 323.738 1479.31 322.41C1480.25 321.082 1480.72 319.357 1480.72 317.234V316.824ZM1335.39 380.41C1332.44 380.41 1330.1 379.434 1328.36 377.48C1326.62 375.514 1325.76 372.969 1325.76 369.844V368.984C1325.76 365.977 1326.65 363.477 1328.43 361.484C1330.23 359.479 1332.35 358.477 1334.8 358.477C1337.64 358.477 1339.79 359.336 1341.25 361.055C1342.72 362.773 1343.45 365.065 1343.45 367.93V370.332H1329.74L1329.68 370.43C1329.72 372.461 1330.24 374.134 1331.23 375.449C1332.22 376.751 1333.6 377.402 1335.39 377.402C1336.69 377.402 1337.83 377.22 1338.8 376.855C1339.79 376.478 1340.65 375.964 1341.36 375.312L1342.87 377.812C1342.11 378.542 1341.11 379.16 1339.86 379.668C1338.62 380.163 1337.13 380.41 1335.39 380.41ZM1334.8 361.504C1333.51 361.504 1332.41 362.051 1331.5 363.145C1330.59 364.225 1330.03 365.586 1329.82 367.227L1329.86 367.324H1339.61V366.816C1339.61 365.306 1339.2 364.043 1338.39 363.027C1337.59 362.012 1336.39 361.504 1334.8 361.504ZM1347.26 361.348V358.867H1353.88L1354.25 361.934C1354.85 360.853 1355.59 360.007 1356.46 359.395C1357.35 358.783 1358.36 358.477 1359.49 358.477C1359.79 358.477 1360.09 358.503 1360.41 358.555C1360.73 358.594 1360.98 358.639 1361.15 358.691L1360.64 362.266L1358.45 362.148C1357.44 362.148 1356.58 362.389 1355.89 362.871C1355.2 363.34 1354.67 364.004 1354.29 364.863V376.992L1357.48 377.539V380H1347.26V377.539L1350.45 376.992V361.895L1347.26 361.348ZM1380 365.508H1377.11L1376.48 362.969C1376.01 362.526 1375.42 362.174 1374.7 361.914C1374 361.641 1373.2 361.504 1372.3 361.504C1370.93 361.504 1369.92 361.803 1369.25 362.402C1368.59 363.001 1368.26 363.724 1368.26 364.57C1368.26 365.404 1368.55 366.061 1369.14 366.543C1369.72 367.025 1370.91 367.454 1372.71 367.832C1375.38 368.405 1377.37 369.186 1378.67 370.176C1379.97 371.152 1380.62 372.467 1380.62 374.121C1380.62 375.996 1379.86 377.513 1378.34 378.672C1376.83 379.831 1374.85 380.41 1372.4 380.41C1370.8 380.41 1369.36 380.228 1368.08 379.863C1366.81 379.486 1365.67 378.945 1364.66 378.242L1364.64 373.418H1367.54L1368.26 376.25C1368.7 376.654 1369.3 376.947 1370.05 377.129C1370.82 377.311 1371.6 377.402 1372.4 377.402C1373.77 377.402 1374.83 377.129 1375.6 376.582C1376.38 376.022 1376.77 375.293 1376.77 374.395C1376.77 373.548 1376.45 372.852 1375.8 372.305C1375.16 371.758 1373.94 371.283 1372.14 370.879C1369.58 370.319 1367.65 369.557 1366.34 368.594C1365.04 367.63 1364.39 366.328 1364.39 364.688C1364.39 362.969 1365.12 361.504 1366.58 360.293C1368.05 359.082 1369.96 358.477 1372.3 358.477C1373.9 358.477 1375.34 358.685 1376.62 359.102C1377.89 359.518 1378.95 360.098 1379.8 360.84L1380 365.508ZM1390.93 353.77V358.867H1394.94V361.719H1390.93V374.551C1390.93 375.54 1391.14 376.237 1391.54 376.641C1391.96 377.044 1392.5 377.246 1393.18 377.246C1393.52 377.246 1393.9 377.22 1394.31 377.168C1394.74 377.103 1395.1 377.038 1395.39 376.973L1395.91 379.609C1395.55 379.844 1395.02 380.033 1394.31 380.176C1393.61 380.332 1392.91 380.41 1392.2 380.41C1390.64 380.41 1389.4 379.941 1388.47 379.004C1387.55 378.053 1387.09 376.569 1387.09 374.551V361.719H1383.75V358.867H1387.09V353.77H1390.93ZM1408.51 380.41C1405.57 380.41 1403.23 379.434 1401.48 377.48C1399.75 375.514 1398.88 372.969 1398.88 369.844V368.984C1398.88 365.977 1399.77 363.477 1401.56 361.484C1403.36 359.479 1405.48 358.477 1407.93 358.477C1410.76 358.477 1412.91 359.336 1414.37 361.055C1415.84 362.773 1416.58 365.065 1416.58 367.93V370.332H1402.87L1402.81 370.43C1402.85 372.461 1403.36 374.134 1404.35 375.449C1405.34 376.751 1406.73 377.402 1408.51 377.402C1409.81 377.402 1410.95 377.22 1411.93 376.855C1412.92 376.478 1413.77 375.964 1414.49 375.312L1415.99 377.812C1415.24 378.542 1414.23 379.16 1412.98 379.668C1411.75 380.163 1410.26 380.41 1408.51 380.41ZM1407.93 361.504C1406.64 361.504 1405.54 362.051 1404.62 363.145C1403.71 364.225 1403.15 365.586 1402.95 367.227L1402.98 367.324H1412.73V366.816C1412.73 365.306 1412.33 364.043 1411.52 363.027C1410.71 362.012 1409.51 361.504 1407.93 361.504ZM1419.86 352.012V349.531H1426.89V376.992L1430.07 377.539V380H1419.86V377.539L1423.04 376.992V352.559L1419.86 352.012ZM1432.48 352.012V349.531H1439.51V376.992L1442.69 377.539V380H1432.48V377.539L1435.66 376.992V352.559L1432.48 352.012ZM1455.27 380.41C1452.33 380.41 1449.98 379.434 1448.24 377.48C1446.51 375.514 1445.64 372.969 1445.64 369.844V368.984C1445.64 365.977 1446.53 363.477 1448.32 361.484C1450.11 359.479 1452.24 358.477 1454.68 358.477C1457.52 358.477 1459.67 359.336 1461.13 361.055C1462.6 362.773 1463.34 365.065 1463.34 367.93V370.332H1449.62L1449.57 370.43C1449.61 372.461 1450.12 374.134 1451.11 375.449C1452.1 376.751 1453.49 377.402 1455.27 377.402C1456.57 377.402 1457.71 377.22 1458.69 376.855C1459.68 376.478 1460.53 375.964 1461.25 375.312L1462.75 377.812C1461.99 378.542 1460.99 379.16 1459.74 379.668C1458.51 380.163 1457.01 380.41 1455.27 380.41ZM1454.68 361.504C1453.39 361.504 1452.29 362.051 1451.38 363.145C1450.47 364.225 1449.91 365.586 1449.7 367.227L1449.74 367.324H1459.49V366.816C1459.49 365.306 1459.08 364.043 1458.28 363.027C1457.47 362.012 1456.27 361.504 1454.68 361.504ZM1466.58 377.539L1469.76 376.992V361.895L1466.58 361.348V358.867H1473.2L1473.47 362.012C1474.18 360.892 1475.05 360.026 1476.11 359.414C1477.18 358.789 1478.39 358.477 1479.74 358.477C1482.02 358.477 1483.79 359.147 1485.04 360.488C1486.29 361.816 1486.91 363.874 1486.91 366.66V376.992L1490.09 377.539V380H1479.88V377.539L1483.06 376.992V366.738C1483.06 364.876 1482.69 363.555 1481.95 362.773C1481.22 361.992 1480.1 361.602 1478.59 361.602C1477.48 361.602 1476.5 361.868 1475.64 362.402C1474.79 362.936 1474.12 363.665 1473.61 364.59V376.992L1476.79 377.539V380H1466.58V377.539Z" fill="#FFFFF9"/>
<path d="M287 265C322.664 197.084 422.593 102.001 537 265" stroke="#979797" stroke-width="3"/>
<path d="M521 265H540V246L521 265Z" fill="#979797" stroke="#979797" stroke-width="3"/>
<path d="M540 405C504.336 472.916 404.407 567.999 290 405" stroke="#979797" stroke-width="3"/>
<path d="M306 405H287V424L306 405Z" fill="#979797" stroke="#979797" stroke-width="3"/>
<path d="M566 265C601.664 197.084 701.593 102.001 816 265" stroke="#979797" stroke-width="3"/>
<path d="M800 265H819V246L800 265Z" fill="#979797" stroke="#979797" stroke-width="3"/>
<path d="M845 265C880.664 197.084 980.593 102.001 1095 265" stroke="#979797" stroke-width="3"/>
<path d="M1079 265H1098V246L1079 265Z" fill="#979797" stroke="#979797" stroke-width="3"/>
<path d="M847 217C882.664 149.084 982.593 54.0013 1097 217" stroke="#979797" stroke-width="3"/>
<path d="M1081 217H1100V198L1081 217Z" fill="#979797" stroke="#979797" stroke-width="3"/>
<path d="M1094 405C1058.34 472.916 958.407 567.999 844 405" stroke="#979797" stroke-width="3"/>
<path d="M860 405H841V424L860 405Z" fill="#979797" stroke="#979797" stroke-width="3"/>
<path d="M1124 265C1159.66 197.084 1259.59 102.001 1374 265" stroke="#979797" stroke-width="3"/>
<path d="M1358 265H1377V246L1358 265Z" fill="#979797" stroke="#979797" stroke-width="3"/>
<path d="M1403 265C1438.66 197.084 1538.59 102.001 1653 265" stroke="#979797" stroke-width="3"/>
<path d="M1637 265H1656V246L1637 265Z" fill="#979797" stroke="#979797" stroke-width="3"/>
<path d="M1653 405C1617.34 472.916 1517.41 567.999 1403 405" stroke="#979797" stroke-width="3"/>
<path d="M1419 405H1400V424L1419 405Z" fill="#979797" stroke="#979797" stroke-width="3"/>
<path d="M285 216C360.892 86.2048 573.541 -95.5086 817 216" stroke="#979797" stroke-width="3"/>
<path d="M800 216H819V197L800 216Z" fill="#979797" stroke="#979797" stroke-width="3"/>
</svg>
