<svg width="4096" height="114" viewBox="0 0 4096 114" fill="none" xmlns="http://www.w3.org/2000/svg">
<rect width="4096" height="114" fill="white"/>
<path d="M55.1777 39V30.4336H56.1738V39H55.1777ZM66.5684 39V34.8223C66.5684 34.3105 66.459 33.9277 66.2402 33.6738C66.0215 33.416 65.6816 33.2871 65.2207 33.2871C64.6152 33.2871 64.168 33.4609 63.8789 33.8086C63.5898 34.1562 63.4453 34.6914 63.4453 35.4141V39H62.4727V34.8223C62.4727 34.3105 62.3633 33.9277 62.1445 33.6738C61.9258 33.416 61.584 33.2871 61.1191 33.2871C60.5098 33.2871 60.0625 33.4707 59.7773 33.8379C59.4961 34.2012 59.3555 34.7988 59.3555 35.6309V39H58.3828V32.5781H59.1738L59.332 33.457H59.3789C59.5625 33.1445 59.8203 32.9004 60.1523 32.7246C60.4883 32.5488 60.8633 32.4609 61.2773 32.4609C62.2812 32.4609 62.9375 32.8242 63.2461 33.5508H63.293C63.4844 33.2148 63.7617 32.9492 64.125 32.7539C64.4883 32.5586 64.9023 32.4609 65.3672 32.4609C66.0938 32.4609 66.6367 32.6484 66.9961 33.0234C67.3594 33.3945 67.541 33.9902 67.541 34.8105V39H66.5684ZM80.291 39H79.3066L77.5781 33.2637C77.4961 33.0098 77.4043 32.6895 77.3027 32.3027C77.2012 31.916 77.1484 31.6836 77.1445 31.6055C77.0586 32.1211 76.9219 32.6855 76.7344 33.2988L75.0586 39H74.0742L71.7949 30.4336H72.8496L74.2031 35.7246C74.3906 36.4668 74.5273 37.1387 74.6133 37.7402C74.7188 37.0254 74.875 36.3262 75.082 35.6426L76.6172 30.4336H77.6719L79.2832 35.6895C79.4707 36.2949 79.6289 36.9785 79.7578 37.7402C79.832 37.1855 79.9727 36.5098 80.1797 35.7129L81.5273 30.4336H82.582L80.291 39ZM88.1719 39V34.8457C88.1719 34.3223 88.0527 33.9316 87.8145 33.6738C87.5762 33.416 87.2031 33.2871 86.6953 33.2871C86.0195 33.2871 85.5254 33.4707 85.2129 33.8379C84.9043 34.2051 84.75 34.8066 84.75 35.6426V39H83.7773V29.8828H84.75V32.6426C84.75 32.9746 84.7344 33.25 84.7031 33.4688H84.7617C84.9531 33.1602 85.2246 32.918 85.5762 32.7422C85.9316 32.5625 86.3359 32.4727 86.7891 32.4727C87.5742 32.4727 88.1621 32.6602 88.5527 33.0352C88.9473 33.4062 89.1445 33.998 89.1445 34.8105V39H88.1719ZM95.0977 39L94.9043 38.0859H94.8574C94.5371 38.4883 94.2168 38.7617 93.8965 38.9062C93.5801 39.0469 93.1836 39.1172 92.707 39.1172C92.0703 39.1172 91.5703 38.9531 91.207 38.625C90.8477 38.2969 90.668 37.8301 90.668 37.2246C90.668 35.9277 91.7051 35.248 93.7793 35.1855L94.8691 35.1504V34.752C94.8691 34.248 94.7598 33.877 94.541 33.6387C94.3262 33.3965 93.9805 33.2754 93.5039 33.2754C92.9688 33.2754 92.3633 33.4395 91.6875 33.7676L91.3887 33.0234C91.7051 32.8516 92.0508 32.7168 92.4258 32.6191C92.8047 32.5215 93.1836 32.4727 93.5625 32.4727C94.3281 32.4727 94.8945 32.6426 95.2617 32.9824C95.6328 33.3223 95.8184 33.8672 95.8184 34.6172V39H95.0977ZM92.9004 38.3145C93.5059 38.3145 93.9805 38.1484 94.3242 37.8164C94.6719 37.4844 94.8457 37.0195 94.8457 36.4219V35.8418L93.873 35.8828C93.0996 35.9102 92.541 36.0312 92.1973 36.2461C91.8574 36.457 91.6875 36.7871 91.6875 37.2363C91.6875 37.5879 91.793 37.8555 92.0039 38.0391C92.2188 38.2227 92.5176 38.3145 92.9004 38.3145ZM99.9023 38.3145C100.074 38.3145 100.24 38.3027 100.4 38.2793C100.561 38.252 100.688 38.2246 100.781 38.1973V38.9414C100.676 38.9922 100.52 39.0332 100.312 39.0645C100.109 39.0996 99.9258 39.1172 99.7617 39.1172C98.5195 39.1172 97.8984 38.4629 97.8984 37.1543V33.334H96.9785V32.8652L97.8984 32.4609L98.3086 31.0898H98.8711V32.5781H100.734V33.334H98.8711V37.1133C98.8711 37.5 98.9629 37.7969 99.1465 38.0039C99.3301 38.2109 99.582 38.3145 99.9023 38.3145ZM106.213 37.248C106.213 37.8457 105.99 38.3066 105.545 38.6309C105.1 38.9551 104.475 39.1172 103.67 39.1172C102.818 39.1172 102.154 38.9824 101.678 38.7129V37.8105C101.986 37.9668 102.316 38.0898 102.668 38.1797C103.023 38.2695 103.365 38.3145 103.693 38.3145C104.201 38.3145 104.592 38.2344 104.865 38.0742C105.139 37.9102 105.275 37.6621 105.275 37.3301C105.275 37.0801 105.166 36.8672 104.947 36.6914C104.732 36.5117 104.311 36.3008 103.682 36.0586C103.084 35.8359 102.658 35.6426 102.404 35.4785C102.154 35.3105 101.967 35.1211 101.842 34.9102C101.721 34.6992 101.66 34.4473 101.66 34.1543C101.66 33.6309 101.873 33.2188 102.299 32.918C102.725 32.6133 103.309 32.4609 104.051 32.4609C104.742 32.4609 105.418 32.6016 106.078 32.8828L105.732 33.6738C105.088 33.4082 104.504 33.2754 103.98 33.2754C103.52 33.2754 103.172 33.3477 102.938 33.4922C102.703 33.6367 102.586 33.8359 102.586 34.0898C102.586 34.2617 102.629 34.4082 102.715 34.5293C102.805 34.6504 102.947 34.7656 103.143 34.875C103.338 34.9844 103.713 35.1426 104.268 35.3496C105.029 35.627 105.543 35.9062 105.809 36.1875C106.078 36.4688 106.213 36.8223 106.213 37.248ZM113.332 39L112.266 36.2754H108.832L107.777 39H106.77L110.156 30.3984H110.994L114.363 39H113.332ZM111.955 35.3789L110.959 32.7246C110.83 32.3887 110.697 31.9766 110.561 31.4883C110.475 31.8633 110.352 32.2754 110.191 32.7246L109.184 35.3789H111.955ZM118.383 39.1172C117.965 39.1172 117.582 39.041 117.234 38.8887C116.891 38.7324 116.602 38.4941 116.367 38.1738H116.297C116.344 38.5488 116.367 38.9043 116.367 39.2402V41.8828H115.395V32.5781H116.186L116.32 33.457H116.367C116.617 33.1055 116.908 32.8516 117.24 32.6953C117.572 32.5391 117.953 32.4609 118.383 32.4609C119.234 32.4609 119.891 32.752 120.352 33.334C120.816 33.916 121.049 34.7324 121.049 35.7832C121.049 36.8379 120.812 37.6582 120.34 38.2441C119.871 38.8262 119.219 39.1172 118.383 39.1172ZM118.242 33.2871C117.586 33.2871 117.111 33.4688 116.818 33.832C116.525 34.1953 116.375 34.7734 116.367 35.5664V35.7832C116.367 36.6855 116.518 37.332 116.818 37.7227C117.119 38.1094 117.602 38.3027 118.266 38.3027C118.82 38.3027 119.254 38.0781 119.566 37.6289C119.883 37.1797 120.041 36.5605 120.041 35.7715C120.041 34.9707 119.883 34.3574 119.566 33.9316C119.254 33.502 118.812 33.2871 118.242 33.2871ZM125.742 39.1172C125.324 39.1172 124.941 39.041 124.594 38.8887C124.25 38.7324 123.961 38.4941 123.727 38.1738H123.656C123.703 38.5488 123.727 38.9043 123.727 39.2402V41.8828H122.754V32.5781H123.545L123.68 33.457H123.727C123.977 33.1055 124.268 32.8516 124.6 32.6953C124.932 32.5391 125.312 32.4609 125.742 32.4609C126.594 32.4609 127.25 32.752 127.711 33.334C128.176 33.916 128.408 34.7324 128.408 35.7832C128.408 36.8379 128.172 37.6582 127.699 38.2441C127.23 38.8262 126.578 39.1172 125.742 39.1172ZM125.602 33.2871C124.945 33.2871 124.471 33.4688 124.178 33.832C123.885 34.1953 123.734 34.7734 123.727 35.5664V35.7832C123.727 36.6855 123.877 37.332 124.178 37.7227C124.479 38.1094 124.961 38.3027 125.625 38.3027C126.18 38.3027 126.613 38.0781 126.926 37.6289C127.242 37.1797 127.4 36.5605 127.4 35.7715C127.4 34.9707 127.242 34.3574 126.926 33.9316C126.613 33.502 126.172 33.2871 125.602 33.2871ZM129.574 36.2285V35.3379H132.451V36.2285H129.574ZM137.895 34.5117H140.807V38.6777C140.354 38.8223 139.893 38.9316 139.424 39.0059C138.955 39.0801 138.412 39.1172 137.795 39.1172C136.498 39.1172 135.488 38.7324 134.766 37.9629C134.043 37.1895 133.682 36.1074 133.682 34.7168C133.682 33.8262 133.859 33.0469 134.215 32.3789C134.574 31.707 135.09 31.1953 135.762 30.8438C136.434 30.4883 137.221 30.3105 138.123 30.3105C139.037 30.3105 139.889 30.4785 140.678 30.8145L140.291 31.6934C139.518 31.3652 138.773 31.2012 138.059 31.2012C137.016 31.2012 136.201 31.5117 135.615 32.1328C135.029 32.7539 134.736 33.6152 134.736 34.7168C134.736 35.873 135.018 36.75 135.58 37.3477C136.146 37.9453 136.977 38.2441 138.07 38.2441C138.664 38.2441 139.244 38.1758 139.811 38.0391V35.4023H137.895V34.5117ZM145.652 32.4609C145.938 32.4609 146.193 32.4844 146.42 32.5312L146.285 33.4336C146.02 33.375 145.785 33.3457 145.582 33.3457C145.062 33.3457 144.617 33.5566 144.246 33.9785C143.879 34.4004 143.695 34.9258 143.695 35.5547V39H142.723V32.5781H143.525L143.637 33.7676H143.684C143.922 33.3496 144.209 33.0273 144.545 32.8008C144.881 32.5742 145.25 32.4609 145.652 32.4609ZM148.535 32.5781V36.7441C148.535 37.2676 148.654 37.6582 148.893 37.916C149.131 38.1738 149.504 38.3027 150.012 38.3027C150.684 38.3027 151.174 38.1191 151.482 37.752C151.795 37.3848 151.951 36.7852 151.951 35.9531V32.5781H152.924V39H152.121L151.98 38.1387H151.928C151.729 38.4551 151.451 38.6973 151.096 38.8652C150.744 39.0332 150.342 39.1172 149.889 39.1172C149.107 39.1172 148.521 38.9316 148.131 38.5605C147.744 38.1895 147.551 37.5957 147.551 36.7793V32.5781H148.535ZM157.98 39.1172C157.562 39.1172 157.18 39.041 156.832 38.8887C156.488 38.7324 156.199 38.4941 155.965 38.1738H155.895C155.941 38.5488 155.965 38.9043 155.965 39.2402V41.8828H154.992V32.5781H155.783L155.918 33.457H155.965C156.215 33.1055 156.506 32.8516 156.838 32.6953C157.17 32.5391 157.551 32.4609 157.98 32.4609C158.832 32.4609 159.488 32.752 159.949 33.334C160.414 33.916 160.646 34.7324 160.646 35.7832C160.646 36.8379 160.41 37.6582 159.938 38.2441C159.469 38.8262 158.816 39.1172 157.98 39.1172ZM157.84 33.2871C157.184 33.2871 156.709 33.4688 156.416 33.832C156.123 34.1953 155.973 34.7734 155.965 35.5664V35.7832C155.965 36.6855 156.115 37.332 156.416 37.7227C156.717 38.1094 157.199 38.3027 157.863 38.3027C158.418 38.3027 158.852 38.0781 159.164 37.6289C159.48 37.1797 159.639 36.5605 159.639 35.7715C159.639 34.9707 159.48 34.3574 159.164 33.9316C158.852 33.502 158.41 33.2871 157.84 33.2871ZM165.34 39.1172C164.922 39.1172 164.539 39.041 164.191 38.8887C163.848 38.7324 163.559 38.4941 163.324 38.1738H163.254C163.301 38.5488 163.324 38.9043 163.324 39.2402V41.8828H162.352V32.5781H163.143L163.277 33.457H163.324C163.574 33.1055 163.865 32.8516 164.197 32.6953C164.529 32.5391 164.91 32.4609 165.34 32.4609C166.191 32.4609 166.848 32.752 167.309 33.334C167.773 33.916 168.006 34.7324 168.006 35.7832C168.006 36.8379 167.77 37.6582 167.297 38.2441C166.828 38.8262 166.176 39.1172 165.34 39.1172ZM165.199 33.2871C164.543 33.2871 164.068 33.4688 163.775 33.832C163.482 34.1953 163.332 34.7734 163.324 35.5664V35.7832C163.324 36.6855 163.475 37.332 163.775 37.7227C164.076 38.1094 164.559 38.3027 165.223 38.3027C165.777 38.3027 166.211 38.0781 166.523 37.6289C166.84 37.1797 166.998 36.5605 166.998 35.7715C166.998 34.9707 166.84 34.3574 166.523 33.9316C166.211 33.502 165.77 33.2871 165.199 33.2871ZM172.424 39.1172C171.475 39.1172 170.725 38.8281 170.174 38.25C169.627 37.6719 169.354 36.8691 169.354 35.8418C169.354 34.8066 169.607 33.9844 170.115 33.375C170.627 32.7656 171.312 32.4609 172.172 32.4609C172.977 32.4609 173.613 32.7266 174.082 33.2578C174.551 33.7852 174.785 34.4824 174.785 35.3496V35.9648H170.361C170.381 36.7188 170.57 37.291 170.93 37.6816C171.293 38.0723 171.803 38.2676 172.459 38.2676C173.15 38.2676 173.834 38.123 174.51 37.834V38.7012C174.166 38.8496 173.84 38.9551 173.531 39.0176C173.227 39.084 172.857 39.1172 172.424 39.1172ZM172.16 33.2754C171.645 33.2754 171.232 33.4434 170.924 33.7793C170.619 34.1152 170.439 34.5801 170.385 35.1738H173.742C173.742 34.5605 173.605 34.0918 173.332 33.7676C173.059 33.4395 172.668 33.2754 172.16 33.2754ZM180.844 39V34.8457C180.844 34.3223 180.725 33.9316 180.486 33.6738C180.248 33.416 179.875 33.2871 179.367 33.2871C178.695 33.2871 178.203 33.4688 177.891 33.832C177.578 34.1953 177.422 34.7949 177.422 35.6309V39H176.449V32.5781H177.24L177.398 33.457H177.445C177.645 33.1406 177.924 32.8965 178.283 32.7246C178.643 32.5488 179.043 32.4609 179.484 32.4609C180.258 32.4609 180.84 32.6484 181.23 33.0234C181.621 33.3945 181.816 33.9902 181.816 34.8105V39H180.844ZM186.387 39.1172C185.457 39.1172 184.736 38.832 184.225 38.2617C183.717 37.6875 183.463 36.877 183.463 35.8301C183.463 34.7559 183.721 33.9258 184.236 33.3398C184.756 32.7539 185.494 32.4609 186.451 32.4609C186.76 32.4609 187.068 32.4941 187.377 32.5605C187.686 32.627 187.928 32.7051 188.104 32.7949L187.805 33.6211C187.59 33.5352 187.355 33.4648 187.102 33.4102C186.848 33.3516 186.623 33.3223 186.428 33.3223C185.123 33.3223 184.471 34.1543 184.471 35.8184C184.471 36.6074 184.629 37.2129 184.945 37.6348C185.266 38.0566 185.738 38.2676 186.363 38.2676C186.898 38.2676 187.447 38.1523 188.01 37.9219V38.7832C187.58 39.0059 187.039 39.1172 186.387 39.1172ZM193.934 39V34.8457C193.934 34.3223 193.814 33.9316 193.576 33.6738C193.338 33.416 192.965 33.2871 192.457 33.2871C191.781 33.2871 191.287 33.4707 190.975 33.8379C190.666 34.2051 190.512 34.8066 190.512 35.6426V39H189.539V29.8828H190.512V32.6426C190.512 32.9746 190.496 33.25 190.465 33.4688H190.523C190.715 33.1602 190.986 32.918 191.338 32.7422C191.693 32.5625 192.098 32.4727 192.551 32.4727C193.336 32.4727 193.924 32.6602 194.314 33.0352C194.709 33.4062 194.906 33.998 194.906 34.8105V39H193.934ZM200.859 39L200.666 38.0859H200.619C200.299 38.4883 199.979 38.7617 199.658 38.9062C199.342 39.0469 198.945 39.1172 198.469 39.1172C197.832 39.1172 197.332 38.9531 196.969 38.625C196.609 38.2969 196.43 37.8301 196.43 37.2246C196.43 35.9277 197.467 35.248 199.541 35.1855L200.631 35.1504V34.752C200.631 34.248 200.521 33.877 200.303 33.6387C200.088 33.3965 199.742 33.2754 199.266 33.2754C198.73 33.2754 198.125 33.4395 197.449 33.7676L197.15 33.0234C197.467 32.8516 197.812 32.7168 198.188 32.6191C198.566 32.5215 198.945 32.4727 199.324 32.4727C200.09 32.4727 200.656 32.6426 201.023 32.9824C201.395 33.3223 201.58 33.8672 201.58 34.6172V39H200.859ZM198.662 38.3145C199.268 38.3145 199.742 38.1484 200.086 37.8164C200.434 37.4844 200.607 37.0195 200.607 36.4219V35.8418L199.635 35.8828C198.861 35.9102 198.303 36.0312 197.959 36.2461C197.619 36.457 197.449 36.7871 197.449 37.2363C197.449 37.5879 197.555 37.8555 197.766 38.0391C197.98 38.2227 198.279 38.3145 198.662 38.3145ZM205.664 38.3145C205.836 38.3145 206.002 38.3027 206.162 38.2793C206.322 38.252 206.449 38.2246 206.543 38.1973V38.9414C206.438 38.9922 206.281 39.0332 206.074 39.0645C205.871 39.0996 205.688 39.1172 205.523 39.1172C204.281 39.1172 203.66 38.4629 203.66 37.1543V33.334H202.74V32.8652L203.66 32.4609L204.07 31.0898H204.633V32.5781H206.496V33.334H204.633V37.1133C204.633 37.5 204.725 37.7969 204.908 38.0039C205.092 38.2109 205.344 38.3145 205.664 38.3145ZM216.193 39L215.016 35.2324C214.941 35.002 214.803 34.4785 214.6 33.6621H214.553C214.396 34.3457 214.26 34.873 214.143 35.2441L212.93 39H211.805L210.053 32.5781H211.072C211.486 34.1914 211.801 35.4199 212.016 36.2637C212.234 37.1074 212.359 37.6758 212.391 37.9688H212.438C212.48 37.7461 212.549 37.459 212.643 37.1074C212.74 36.752 212.824 36.4707 212.895 36.2637L214.072 32.5781H215.127L216.275 36.2637C216.494 36.9355 216.643 37.5 216.721 37.957H216.768C216.783 37.8164 216.824 37.5996 216.891 37.3066C216.961 37.0137 217.369 35.4375 218.115 32.5781H219.123L217.348 39H216.193ZM221.262 39H220.289V32.5781H221.262V39ZM220.207 30.8379C220.207 30.6152 220.262 30.4531 220.371 30.3516C220.48 30.2461 220.617 30.1934 220.781 30.1934C220.938 30.1934 221.072 30.2461 221.186 30.3516C221.299 30.457 221.355 30.6191 221.355 30.8379C221.355 31.0566 221.299 31.2207 221.186 31.3301C221.072 31.4355 220.938 31.4883 220.781 31.4883C220.617 31.4883 220.48 31.4355 220.371 31.3301C220.262 31.2207 220.207 31.0566 220.207 30.8379ZM226.254 32.4609C226.539 32.4609 226.795 32.4844 227.021 32.5312L226.887 33.4336C226.621 33.375 226.387 33.3457 226.184 33.3457C225.664 33.3457 225.219 33.5566 224.848 33.9785C224.48 34.4004 224.297 34.9258 224.297 35.5547V39H223.324V32.5781H224.127L224.238 33.7676H224.285C224.523 33.3496 224.811 33.0273 225.146 32.8008C225.482 32.5742 225.852 32.4609 226.254 32.4609ZM232.594 38.1387H232.541C232.092 38.791 231.42 39.1172 230.525 39.1172C229.686 39.1172 229.031 38.8301 228.562 38.2559C228.098 37.6816 227.865 36.8652 227.865 35.8066C227.865 34.748 228.1 33.9258 228.568 33.3398C229.037 32.7539 229.689 32.4609 230.525 32.4609C231.396 32.4609 232.064 32.7773 232.529 33.4102H232.605L232.564 32.9473L232.541 32.4961V29.8828H233.514V39H232.723L232.594 38.1387ZM230.648 38.3027C231.312 38.3027 231.793 38.123 232.09 37.7637C232.391 37.4004 232.541 36.8164 232.541 36.0117V35.8066C232.541 34.8965 232.389 34.248 232.084 33.8613C231.783 33.4707 231.301 33.2754 230.637 33.2754C230.066 33.2754 229.629 33.498 229.324 33.9434C229.023 34.3848 228.873 35.0098 228.873 35.8184C228.873 36.6387 229.023 37.2578 229.324 37.6758C229.625 38.0938 230.066 38.3027 230.648 38.3027ZM241.412 39.1172C240.463 39.1172 239.713 38.8281 239.162 38.25C238.615 37.6719 238.342 36.8691 238.342 35.8418C238.342 34.8066 238.596 33.9844 239.104 33.375C239.615 32.7656 240.301 32.4609 241.16 32.4609C241.965 32.4609 242.602 32.7266 243.07 33.2578C243.539 33.7852 243.773 34.4824 243.773 35.3496V35.9648H239.35C239.369 36.7188 239.559 37.291 239.918 37.6816C240.281 38.0723 240.791 38.2676 241.447 38.2676C242.139 38.2676 242.822 38.123 243.498 37.834V38.7012C243.154 38.8496 242.828 38.9551 242.52 39.0176C242.215 39.084 241.846 39.1172 241.412 39.1172ZM241.148 33.2754C240.633 33.2754 240.221 33.4434 239.912 33.7793C239.607 34.1152 239.428 34.5801 239.373 35.1738H242.73C242.73 34.5605 242.594 34.0918 242.32 33.7676C242.047 33.4395 241.656 33.2754 241.148 33.2754ZM246.41 39H245.438V32.5781H246.41V39ZM245.355 30.8379C245.355 30.6152 245.41 30.4531 245.52 30.3516C245.629 30.2461 245.766 30.1934 245.93 30.1934C246.086 30.1934 246.221 30.2461 246.334 30.3516C246.447 30.457 246.504 30.6191 246.504 30.8379C246.504 31.0566 246.447 31.2207 246.334 31.3301C246.221 31.4355 246.086 31.4883 245.93 31.4883C245.766 31.4883 245.629 31.4355 245.52 31.3301C245.41 31.2207 245.355 31.0566 245.355 30.8379ZM252.867 39V34.8457C252.867 34.3223 252.748 33.9316 252.51 33.6738C252.271 33.416 251.898 33.2871 251.391 33.2871C250.719 33.2871 250.227 33.4688 249.914 33.832C249.602 34.1953 249.445 34.7949 249.445 35.6309V39H248.473V32.5781H249.264L249.422 33.457H249.469C249.668 33.1406 249.947 32.8965 250.307 32.7246C250.666 32.5488 251.066 32.4609 251.508 32.4609C252.281 32.4609 252.863 32.6484 253.254 33.0234C253.645 33.3945 253.84 33.9902 253.84 34.8105V39H252.867ZM57.8145 55H56.8184V47.3184H54.1055V46.4336H60.5273V47.3184H57.8145V55ZM64.6055 48.4609C64.8906 48.4609 65.1465 48.4844 65.373 48.5312L65.2383 49.4336C64.9727 49.375 64.7383 49.3457 64.5352 49.3457C64.0156 49.3457 63.5703 49.5566 63.1992 49.9785C62.832 50.4004 62.6484 50.9258 62.6484 51.5547V55H61.6758V48.5781H62.4785L62.5898 49.7676H62.6367C62.875 49.3496 63.1621 49.0273 63.498 48.8008C63.834 48.5742 64.2031 48.4609 64.6055 48.4609ZM69.2871 55.1172C68.3379 55.1172 67.5879 54.8281 67.0371 54.25C66.4902 53.6719 66.2168 52.8691 66.2168 51.8418C66.2168 50.8066 66.4707 49.9844 66.9785 49.375C67.4902 48.7656 68.1758 48.4609 69.0352 48.4609C69.8398 48.4609 70.4766 48.7266 70.9453 49.2578C71.4141 49.7852 71.6484 50.4824 71.6484 51.3496V51.9648H67.2246C67.2441 52.7188 67.4336 53.291 67.793 53.6816C68.1562 54.0723 68.666 54.2676 69.3223 54.2676C70.0137 54.2676 70.6973 54.123 71.373 53.834V54.7012C71.0293 54.8496 70.7031 54.9551 70.3945 55.0176C70.0898 55.084 69.7207 55.1172 69.2871 55.1172ZM69.0234 49.2754C68.5078 49.2754 68.0957 49.4434 67.7871 49.7793C67.4824 50.1152 67.3027 50.5801 67.248 51.1738H70.6055C70.6055 50.5605 70.4688 50.0918 70.1953 49.7676C69.9219 49.4395 69.5312 49.2754 69.0234 49.2754ZM80.2734 49.334H78.6387V55H77.666V49.334H76.5176V48.8945L77.666 48.543V48.1855C77.666 46.6074 78.3555 45.8184 79.7344 45.8184C80.0742 45.8184 80.4727 45.8867 80.9297 46.0234L80.6777 46.8027C80.3027 46.6816 79.9824 46.6211 79.7168 46.6211C79.3496 46.6211 79.0781 46.7441 78.9023 46.9902C78.7266 47.2324 78.6387 47.623 78.6387 48.1621V48.5781H80.2734V49.334ZM76.207 49.334H74.5723V55H73.5996V49.334H72.4512V48.8945L73.5996 48.543V48.1855C73.5996 46.6074 74.2891 45.8184 75.668 45.8184C76.0078 45.8184 76.4062 45.8867 76.8633 46.0234L76.6113 46.8027C76.2363 46.6816 75.916 46.6211 75.6504 46.6211C75.2832 46.6211 75.0117 46.7441 74.8359 46.9902C74.6602 47.2324 74.5723 47.623 74.5723 48.1621V48.5781H76.207V49.334ZM84.1699 55.1172C83.2207 55.1172 82.4707 54.8281 81.9199 54.25C81.373 53.6719 81.0996 52.8691 81.0996 51.8418C81.0996 50.8066 81.3535 49.9844 81.8613 49.375C82.373 48.7656 83.0586 48.4609 83.918 48.4609C84.7227 48.4609 85.3594 48.7266 85.8281 49.2578C86.2969 49.7852 86.5312 50.4824 86.5312 51.3496V51.9648H82.1074C82.127 52.7188 82.3164 53.291 82.6758 53.6816C83.0391 54.0723 83.5488 54.2676 84.2051 54.2676C84.8965 54.2676 85.5801 54.123 86.2559 53.834V54.7012C85.9121 54.8496 85.5859 54.9551 85.2773 55.0176C84.9727 55.084 84.6035 55.1172 84.1699 55.1172ZM83.9062 49.2754C83.3906 49.2754 82.9785 49.4434 82.6699 49.7793C82.3652 50.1152 82.1855 50.5801 82.1309 51.1738H85.4883C85.4883 50.5605 85.3516 50.0918 85.0781 49.7676C84.8047 49.4395 84.4141 49.2754 83.9062 49.2754ZM92.5898 55V50.8457C92.5898 50.3223 92.4707 49.9316 92.2324 49.6738C91.9941 49.416 91.6211 49.2871 91.1133 49.2871C90.4414 49.2871 89.9492 49.4688 89.6367 49.832C89.3242 50.1953 89.168 50.7949 89.168 51.6309V55H88.1953V48.5781H88.9863L89.1445 49.457H89.1914C89.3906 49.1406 89.6699 48.8965 90.0293 48.7246C90.3887 48.5488 90.7891 48.4609 91.2305 48.4609C92.0039 48.4609 92.5859 48.6484 92.9766 49.0234C93.3672 49.3945 93.5625 49.9902 93.5625 50.8105V55H92.5898ZM106.723 55L106.529 54.0859H106.482C106.162 54.4883 105.842 54.7617 105.521 54.9062C105.205 55.0469 104.809 55.1172 104.332 55.1172C103.695 55.1172 103.195 54.9531 102.832 54.625C102.473 54.2969 102.293 53.8301 102.293 53.2246C102.293 51.9277 103.33 51.248 105.404 51.1855L106.494 51.1504V50.752C106.494 50.248 106.385 49.877 106.166 49.6387C105.951 49.3965 105.605 49.2754 105.129 49.2754C104.594 49.2754 103.988 49.4395 103.312 49.7676L103.014 49.0234C103.33 48.8516 103.676 48.7168 104.051 48.6191C104.43 48.5215 104.809 48.4727 105.188 48.4727C105.953 48.4727 106.52 48.6426 106.887 48.9824C107.258 49.3223 107.443 49.8672 107.443 50.6172V55H106.723ZM104.525 54.3145C105.131 54.3145 105.605 54.1484 105.949 53.8164C106.297 53.4844 106.471 53.0195 106.471 52.4219V51.8418L105.498 51.8828C104.725 51.9102 104.166 52.0312 103.822 52.2461C103.482 52.457 103.312 52.7871 103.312 53.2363C103.312 53.5879 103.418 53.8555 103.629 54.0391C103.844 54.2227 104.143 54.3145 104.525 54.3145ZM117.639 55V50.8223C117.639 50.3105 117.529 49.9277 117.311 49.6738C117.092 49.416 116.752 49.2871 116.291 49.2871C115.686 49.2871 115.238 49.4609 114.949 49.8086C114.66 50.1562 114.516 50.6914 114.516 51.4141V55H113.543V50.8223C113.543 50.3105 113.434 49.9277 113.215 49.6738C112.996 49.416 112.654 49.2871 112.189 49.2871C111.58 49.2871 111.133 49.4707 110.848 49.8379C110.566 50.2012 110.426 50.7988 110.426 51.6309V55H109.453V48.5781H110.244L110.402 49.457H110.449C110.633 49.1445 110.891 48.9004 111.223 48.7246C111.559 48.5488 111.934 48.4609 112.348 48.4609C113.352 48.4609 114.008 48.8242 114.316 49.5508H114.363C114.555 49.2148 114.832 48.9492 115.195 48.7539C115.559 48.5586 115.973 48.4609 116.438 48.4609C117.164 48.4609 117.707 48.6484 118.066 49.0234C118.43 49.3945 118.611 49.9902 118.611 50.8105V55H117.639ZM127.676 55L124.77 47.4062H124.723C124.777 48.0078 124.805 48.7227 124.805 49.5508V55H123.885V46.4336H125.385L128.098 53.5H128.145L130.881 46.4336H132.369V55H131.373V49.4805C131.373 48.8477 131.4 48.1602 131.455 47.418H131.408L128.479 55H127.676ZM135.551 55H134.578V48.5781H135.551V55ZM134.496 46.8379C134.496 46.6152 134.551 46.4531 134.66 46.3516C134.77 46.2461 134.906 46.1934 135.07 46.1934C135.227 46.1934 135.361 46.2461 135.475 46.3516C135.588 46.457 135.645 46.6191 135.645 46.8379C135.645 47.0566 135.588 47.2207 135.475 47.3301C135.361 47.4355 135.227 47.4883 135.07 47.4883C134.906 47.4883 134.77 47.4355 134.66 47.3301C134.551 47.2207 134.496 47.0566 134.496 46.8379ZM139.688 54.3145C139.859 54.3145 140.025 54.3027 140.186 54.2793C140.346 54.252 140.473 54.2246 140.566 54.1973V54.9414C140.461 54.9922 140.305 55.0332 140.098 55.0645C139.895 55.0996 139.711 55.1172 139.547 55.1172C138.305 55.1172 137.684 54.4629 137.684 53.1543V49.334H136.764V48.8652L137.684 48.4609L138.094 47.0898H138.656V48.5781H140.52V49.334H138.656V53.1133C138.656 53.5 138.748 53.7969 138.932 54.0039C139.115 54.2109 139.367 54.3145 139.688 54.3145ZM143.93 54.3145C144.102 54.3145 144.268 54.3027 144.428 54.2793C144.588 54.252 144.715 54.2246 144.809 54.1973V54.9414C144.703 54.9922 144.547 55.0332 144.34 55.0645C144.137 55.0996 143.953 55.1172 143.789 55.1172C142.547 55.1172 141.926 54.4629 141.926 53.1543V49.334H141.006V48.8652L141.926 48.4609L142.336 47.0898H142.898V48.5781H144.762V49.334H142.898V53.1133C142.898 53.5 142.99 53.7969 143.174 54.0039C143.357 54.2109 143.609 54.3145 143.93 54.3145ZM150.047 55L149.854 54.0859H149.807C149.486 54.4883 149.166 54.7617 148.846 54.9062C148.529 55.0469 148.133 55.1172 147.656 55.1172C147.02 55.1172 146.52 54.9531 146.156 54.625C145.797 54.2969 145.617 53.8301 145.617 53.2246C145.617 51.9277 146.654 51.248 148.729 51.1855L149.818 51.1504V50.752C149.818 50.248 149.709 49.877 149.49 49.6387C149.275 49.3965 148.93 49.2754 148.453 49.2754C147.918 49.2754 147.312 49.4395 146.637 49.7676L146.338 49.0234C146.654 48.8516 147 48.7168 147.375 48.6191C147.754 48.5215 148.133 48.4727 148.512 48.4727C149.277 48.4727 149.844 48.6426 150.211 48.9824C150.582 49.3223 150.768 49.8672 150.768 50.6172V55H150.047ZM147.85 54.3145C148.455 54.3145 148.93 54.1484 149.273 53.8164C149.621 53.4844 149.795 53.0195 149.795 52.4219V51.8418L148.822 51.8828C148.049 51.9102 147.49 52.0312 147.146 52.2461C146.807 52.457 146.637 52.7871 146.637 53.2363C146.637 53.5879 146.742 53.8555 146.953 54.0391C147.168 54.2227 147.467 54.3145 147.85 54.3145ZM158.033 48.5781V49.1934L156.844 49.334C156.953 49.4707 157.051 49.6504 157.137 49.873C157.223 50.0918 157.266 50.3398 157.266 50.6172C157.266 51.2461 157.051 51.748 156.621 52.123C156.191 52.498 155.602 52.6855 154.852 52.6855C154.66 52.6855 154.48 52.6699 154.312 52.6387C153.898 52.8574 153.691 53.1328 153.691 53.4648C153.691 53.6406 153.764 53.7715 153.908 53.8574C154.053 53.9395 154.301 53.9805 154.652 53.9805H155.789C156.484 53.9805 157.018 54.127 157.389 54.4199C157.764 54.7129 157.951 55.1387 157.951 55.6973C157.951 56.4082 157.666 56.9492 157.096 57.3203C156.525 57.6953 155.693 57.8828 154.6 57.8828C153.76 57.8828 153.111 57.7266 152.654 57.4141C152.201 57.1016 151.975 56.6602 151.975 56.0898C151.975 55.6992 152.1 55.3613 152.35 55.0762C152.6 54.791 152.951 54.5977 153.404 54.4961C153.24 54.4219 153.102 54.3066 152.988 54.1504C152.879 53.9941 152.824 53.8125 152.824 53.6055C152.824 53.3711 152.887 53.166 153.012 52.9902C153.137 52.8145 153.334 52.6445 153.604 52.4805C153.271 52.3438 153 52.1113 152.789 51.7832C152.582 51.4551 152.479 51.0801 152.479 50.6582C152.479 49.9551 152.689 49.4141 153.111 49.0352C153.533 48.6523 154.131 48.4609 154.904 48.4609C155.24 48.4609 155.543 48.5 155.812 48.5781H158.033ZM152.912 56.0781C152.912 56.4258 153.059 56.6895 153.352 56.8691C153.645 57.0488 154.064 57.1387 154.611 57.1387C155.428 57.1387 156.031 57.0156 156.422 56.7695C156.816 56.5273 157.014 56.1973 157.014 55.7793C157.014 55.4316 156.906 55.1895 156.691 55.0527C156.477 54.9199 156.072 54.8535 155.479 54.8535H154.312C153.871 54.8535 153.527 54.959 153.281 55.1699C153.035 55.3809 152.912 55.6836 152.912 56.0781ZM153.439 50.6348C153.439 51.084 153.566 51.4238 153.82 51.6543C154.074 51.8848 154.428 52 154.881 52C155.83 52 156.305 51.5391 156.305 50.6172C156.305 49.6523 155.824 49.1699 154.863 49.1699C154.406 49.1699 154.055 49.293 153.809 49.5391C153.562 49.7852 153.439 50.1504 153.439 50.6348ZM163.875 55L161.438 48.5781H162.48L163.863 52.3867C164.176 53.2773 164.359 53.8555 164.414 54.1211H164.461C164.504 53.9141 164.639 53.4863 164.865 52.8379C165.096 52.1855 165.609 50.7656 166.406 48.5781H167.449L165.012 55H163.875ZM171.193 55.1172C170.244 55.1172 169.494 54.8281 168.943 54.25C168.396 53.6719 168.123 52.8691 168.123 51.8418C168.123 50.8066 168.377 49.9844 168.885 49.375C169.396 48.7656 170.082 48.4609 170.941 48.4609C171.746 48.4609 172.383 48.7266 172.852 49.2578C173.32 49.7852 173.555 50.4824 173.555 51.3496V51.9648H169.131C169.15 52.7188 169.34 53.291 169.699 53.6816C170.062 54.0723 170.572 54.2676 171.229 54.2676C171.92 54.2676 172.604 54.123 173.279 53.834V54.7012C172.936 54.8496 172.609 54.9551 172.301 55.0176C171.996 55.084 171.627 55.1172 171.193 55.1172ZM170.93 49.2754C170.414 49.2754 170.002 49.4434 169.693 49.7793C169.389 50.1152 169.209 50.5801 169.154 51.1738H172.512C172.512 50.5605 172.375 50.0918 172.102 49.7676C171.828 49.4395 171.438 49.2754 170.93 49.2754ZM178.148 48.4609C178.434 48.4609 178.689 48.4844 178.916 48.5312L178.781 49.4336C178.516 49.375 178.281 49.3457 178.078 49.3457C177.559 49.3457 177.113 49.5566 176.742 49.9785C176.375 50.4004 176.191 50.9258 176.191 51.5547V55H175.219V48.5781H176.021L176.133 49.7676H176.18C176.418 49.3496 176.705 49.0273 177.041 48.8008C177.377 48.5742 177.746 48.4609 178.148 48.4609ZM182.83 55.1172C181.881 55.1172 181.131 54.8281 180.58 54.25C180.033 53.6719 179.76 52.8691 179.76 51.8418C179.76 50.8066 180.014 49.9844 180.521 49.375C181.033 48.7656 181.719 48.4609 182.578 48.4609C183.383 48.4609 184.02 48.7266 184.488 49.2578C184.957 49.7852 185.191 50.4824 185.191 51.3496V51.9648H180.768C180.787 52.7188 180.977 53.291 181.336 53.6816C181.699 54.0723 182.209 54.2676 182.865 54.2676C183.557 54.2676 184.24 54.123 184.916 53.834V54.7012C184.572 54.8496 184.246 54.9551 183.938 55.0176C183.633 55.084 183.264 55.1172 182.83 55.1172ZM182.566 49.2754C182.051 49.2754 181.639 49.4434 181.33 49.7793C181.025 50.1152 180.846 50.5801 180.791 51.1738H184.148C184.148 50.5605 184.012 50.0918 183.738 49.7676C183.465 49.4395 183.074 49.2754 182.566 49.2754ZM187.828 55H186.855V48.5781H187.828V55ZM186.773 46.8379C186.773 46.6152 186.828 46.4531 186.938 46.3516C187.047 46.2461 187.184 46.1934 187.348 46.1934C187.504 46.1934 187.639 46.2461 187.752 46.3516C187.865 46.457 187.922 46.6191 187.922 46.8379C187.922 47.0566 187.865 47.2207 187.752 47.3301C187.639 47.4355 187.504 47.4883 187.348 47.4883C187.184 47.4883 187.047 47.4355 186.938 47.3301C186.828 47.2207 186.773 47.0566 186.773 46.8379ZM194.285 55V50.8457C194.285 50.3223 194.166 49.9316 193.928 49.6738C193.689 49.416 193.316 49.2871 192.809 49.2871C192.137 49.2871 191.645 49.4688 191.332 49.832C191.02 50.1953 190.863 50.7949 190.863 51.6309V55H189.891V48.5781H190.682L190.84 49.457H190.887C191.086 49.1406 191.365 48.8965 191.725 48.7246C192.084 48.5488 192.484 48.4609 192.926 48.4609C193.699 48.4609 194.281 48.6484 194.672 49.0234C195.062 49.3945 195.258 49.9902 195.258 50.8105V55H194.285ZM200.25 48.4727C201.094 48.4727 201.748 48.7617 202.213 49.3398C202.682 49.9141 202.916 50.7285 202.916 51.7832C202.916 52.8379 202.68 53.6582 202.207 54.2441C201.738 54.8262 201.086 55.1172 200.25 55.1172C199.832 55.1172 199.449 55.041 199.102 54.8887C198.758 54.7324 198.469 54.4941 198.234 54.1738H198.164L197.959 55H197.262V45.8828H198.234V48.0977C198.234 48.5938 198.219 49.0391 198.188 49.4336H198.234C198.688 48.793 199.359 48.4727 200.25 48.4727ZM200.109 49.2871C199.445 49.2871 198.967 49.4785 198.674 49.8613C198.381 50.2402 198.234 50.8809 198.234 51.7832C198.234 52.6855 198.385 53.332 198.686 53.7227C198.986 54.1094 199.469 54.3027 200.133 54.3027C200.73 54.3027 201.176 54.0859 201.469 53.6523C201.762 53.2148 201.908 52.5879 201.908 51.7715C201.908 50.9355 201.762 50.3125 201.469 49.9023C201.176 49.4922 200.723 49.2871 200.109 49.2871ZM208.57 55L208.377 54.0859H208.33C208.01 54.4883 207.689 54.7617 207.369 54.9062C207.053 55.0469 206.656 55.1172 206.18 55.1172C205.543 55.1172 205.043 54.9531 204.68 54.625C204.32 54.2969 204.141 53.8301 204.141 53.2246C204.141 51.9277 205.178 51.248 207.252 51.1855L208.342 51.1504V50.752C208.342 50.248 208.232 49.877 208.014 49.6387C207.799 49.3965 207.453 49.2754 206.977 49.2754C206.441 49.2754 205.836 49.4395 205.16 49.7676L204.861 49.0234C205.178 48.8516 205.523 48.7168 205.898 48.6191C206.277 48.5215 206.656 48.4727 207.035 48.4727C207.801 48.4727 208.367 48.6426 208.734 48.9824C209.105 49.3223 209.291 49.8672 209.291 50.6172V55H208.57ZM206.373 54.3145C206.979 54.3145 207.453 54.1484 207.797 53.8164C208.145 53.4844 208.318 53.0195 208.318 52.4219V51.8418L207.346 51.8828C206.572 51.9102 206.014 52.0312 205.67 52.2461C205.33 52.457 205.16 52.7871 205.16 53.2363C205.16 53.5879 205.266 53.8555 205.477 54.0391C205.691 54.2227 205.99 54.3145 206.373 54.3145ZM214.23 48.4609C214.516 48.4609 214.771 48.4844 214.998 48.5312L214.863 49.4336C214.598 49.375 214.363 49.3457 214.16 49.3457C213.641 49.3457 213.195 49.5566 212.824 49.9785C212.457 50.4004 212.273 50.9258 212.273 51.5547V55H211.301V48.5781H212.104L212.215 49.7676H212.262C212.5 49.3496 212.787 49.0273 213.123 48.8008C213.459 48.5742 213.828 48.4609 214.23 48.4609ZM218.273 54.3145C218.445 54.3145 218.611 54.3027 218.771 54.2793C218.932 54.252 219.059 54.2246 219.152 54.1973V54.9414C219.047 54.9922 218.891 55.0332 218.684 55.0645C218.48 55.0996 218.297 55.1172 218.133 55.1172C216.891 55.1172 216.27 54.4629 216.27 53.1543V49.334H215.35V48.8652L216.27 48.4609L216.68 47.0898H217.242V48.5781H219.105V49.334H217.242V53.1133C217.242 53.5 217.334 53.7969 217.518 54.0039C217.701 54.2109 217.953 54.3145 218.273 54.3145Z" fill="black"/>
</svg>
